<svg width="223" height="76" viewBox="0 0 223 76" fill="none" xmlns="http://www.w3.org/2000/svg">
<path d="M79.7994 41.2L80.4994 38.3999L80.8994 38.2999L82.9994 40.6L85.7994 40.2L85.9994 39.7999C85.8994 39.5999 85.6994 39.4999 85.4994 39.2999C84.9994 38.6999 84.2994 38.1 83.8994 37.6C85.2994 37 86.3994 35.9999 86.6994 34.8999C86.7994 34.3999 86.7994 34 86.6994 33.7V33.6C86.6994 33.6 86.6994 33.5 86.5994 33.5C86.5994 33.4 86.4994 33.3999 86.3994 33.2999L86.2994 33.2C86.1994 33.1 86.0994 33.1 85.9994 33.1C85.9994 33.1 85.8994 33.1 85.8994 33C85.7994 32.9 85.5994 32.8999 85.3994 32.8999H85.2994C85.1994 32.8999 84.9994 32.8999 84.7994 32.8999C84.5994 32.8999 84.2994 32.9 83.9994 33L78.8994 33.7999L76.8994 41.6L79.7994 41.2ZM81.3994 35.2L83.1994 34.8999C83.2994 34.8999 83.3994 34.8999 83.4994 34.8999H83.5994C83.6994 34.8999 83.6994 34.9 83.6994 35C83.6994 35 83.6994 35 83.7994 35.1L83.8994 35.2C83.8994 35.2 83.8994 35.1999 83.8994 35.2999C83.8994 35.3999 83.8994 35.4 83.8994 35.5C83.7994 35.7 83.5994 36 83.1994 36.1C83.0994 36.2 82.8994 36.2 82.7994 36.2L81.0994 36.5L81.3994 35.2Z" fill="#213521"/>
<path d="M87.299 40.1C87.399 40.1 87.599 40.1 87.799 40.1C88.199 40 88.599 39.8 88.999 39.5C89.099 39.4 89.199 39.3 89.299 39.1C89.399 38.9 89.499 38.7 89.599 38.5C89.599 38.3 89.599 38.2 89.599 38C89.599 38 89.599 37.8999 89.499 37.8999C89.499 37.7999 89.399 37.7 89.399 37.7L89.299 37.6C89.199 37.6 89.199 37.5 89.099 37.5C88.999 37.5 88.999 37.5 88.899 37.5C88.799 37.5 88.599 37.5 88.499 37.5C87.699 37.6 86.999 38.3 86.799 39.1C86.599 39.6 86.899 40 87.299 40.1Z" fill="#213521"/>
<path d="M71.299 42.6C71.999 42.5 72.599 42.3 73.099 42.1C75.199 41.3 76.599 39.6999 77.099 37.8999C77.599 36.0999 76.899 34.6 74.799 34.6C74.799 34.6 74.799 34.6 74.699 34.6C74.399 34.6 74.099 34.6 73.699 34.7L68.999 35.3999L66.999 43.2L71.299 42.6ZM71.299 37L72.399 36.7999C72.699 36.7999 72.899 36.7 73.099 36.7C73.299 36.7 73.399 36.7 73.499 36.7C73.599 36.7 73.799 36.7999 73.899 36.7999C73.899 36.7999 73.999 36.7999 73.999 36.8999C74.099 36.8999 74.099 37 74.199 37C74.499 37.3 74.499 37.7999 74.399 38.2999C74.299 38.7999 73.999 39.2 73.499 39.6C72.999 40 72.299 40.4 71.399 40.5L70.299 40.7C70.499 40 70.499 39.7 71.299 37Z" fill="#213521"/>
<path d="M201.2 34.2999L202.3 28L202.8 25.1C202.9 24.5 202.9 24.1 202.9 23.6C202.9 23.2 202.9 22.8 202.8 22.5C202.8 22.3 202.7 22.0999 202.7 21.8999C202.7 21.7999 202.7 21.8 202.6 21.7C202.6 21.6 202.5 21.3999 202.4 21.2999C202.4 21.1999 202.3 21.2 202.3 21.1C202.2 21 202.2 20.8999 202.1 20.7999C202.1 20.6999 202 20.7 202 20.6C201.9 20.5 201.9 20.3999 201.8 20.3999C201.7 20.3999 201.7 20.2999 201.6 20.2999C201.5 20.1999 201.4 20.2 201.3 20.1C201.2 20.1 201.2 20 201.1 20C201 20 200.9 19.8999 200.8 19.8999C200.7 19.8999 200.7 19.8999 200.6 19.7999C200.5 19.7999 200.3 19.7999 200.2 19.7999C200.1 19.7999 200.1 19.7999 200 19.7999C199.8 19.7999 199.5 19.7999 199.3 19.8999C196.5 20.2999 194.5 23 194.5 23L196.6 10.2999L191.4 11.1L188 31.1C186.7 35 184.5 37.3 181.9 38.2C181.5 38.3 181.2 38.4 180.8 38.5C180.7 38.5 180.5 38.5 180.4 38.6C180.4 38.6 180.3 38.6 180.2 38.6C180.1 38.6 180 38.6 179.8 38.6C179.6 38.6 179.5 38.6 179.3 38.6H179.2C179.1 38.6 178.9 38.6 178.8 38.5H178.7C178.6 38.5 178.4 38.3999 178.3 38.2999H178.2C178 38.1999 177.9 38.1 177.8 38L177.7 37.8999C177.6 37.7999 177.5 37.7 177.4 37.5C177.4 37.4 177.3 37.3999 177.3 37.2999C177.2 37.0999 177.1 36.9 177.1 36.6C176.7 34.3 177.8 28.4 180.2 28C180.3 28 180.3 28 180.4 28C180.5 28 180.6 28 180.6 28.1C180.7 28.1 180.7 28.1999 180.7 28.2999C180.7 28.3999 180.8 28.5 180.8 28.6C180.8 28.6 180.8 28.6 180.8 28.7C180.8 28.8 180.8 29 180.8 29.1V29.2C180.8 29.4 180.8 29.5999 180.7 29.7999V29.8999C180.7 30.0999 180.6 30.4 180.6 30.7V30.7999C180.5 31.0999 180.5 31.3999 180.4 31.7999V31.8999C180.3 32.2999 180.2 32.7 180.1 33.2L185.4 32.3999C185.5 31.9999 185.6 31.6 185.7 31.2C185.7 31.1 185.7 30.9999 185.8 30.7999C185.8 30.5999 185.9 30.3 185.9 30.1C185.9 30 185.9 29.8 185.9 29.7C185.9 29.5 185.9 29.3 185.9 29.1C185.9 29 185.9 28.8 185.9 28.7C185.9 28.5 185.9 28.3 185.9 28.2C185.9 28.1 185.9 27.8999 185.9 27.7999C185.9 27.5999 185.9 27.4999 185.8 27.2999C185.8 27.1999 185.8 27.0999 185.7 26.8999C185.7 26.6999 185.6 26.6 185.6 26.5C185.6 26.4 185.5 26.3 185.5 26.2C185.5 26.1 185.4 25.8999 185.3 25.7999C185.3 25.6999 185.2 25.6 185.2 25.5C185.1 25.4 185.1 25.3 185 25.1C185 25 184.9 24.8999 184.9 24.8999C184.8 24.7999 184.7 24.7 184.6 24.6C184.6 24.5 184.5 24.4999 184.5 24.3999C184.4 24.1999 184.2 24.1 184 24C183.8 23.9 183.7 23.8 183.5 23.6C183.4 23.6 183.4 23.5 183.3 23.5C183.2 23.4 183 23.3999 182.9 23.2999C182.8 23.2999 182.7 23.2 182.6 23.2C182.5 23.2 182.3 23.1 182.2 23.1C182.1 23.1 182 23.1 181.9 23.1C181.8 23.1 181.6 23.1 181.5 23C181.4 23 181.3 23 181.2 23C181.1 23 181 23 180.8 23C180.5 23 180.1 23 179.7 23.1C178.7 23.3 177.9 23.6 177.1 24C176.8 24.1 176.6 24.3 176.4 24.5C173.6 26.5 172.3 30.2 172 33.5C171.6 34.6 171.3 35.7 170.9 36.5C170.5 37.4 170.2 38.0999 169.8 38.7999C169.1 39.9999 168.3 40.6999 167.7 40.7999H167.6C167.6 40.7999 167.6 40.7999 167.5 40.7999C167.5 40.7999 167.5 40.7999 167.4 40.7999H167.3C167.3 40.7999 167.2 40.8 167.2 40.7C167.2 40.7 167.2 40.6 167.1 40.6C167.1 40.6 167.1 40.6 167.1 40.5V40.3999V40.2999V40.2V40.1V40V39.8999C167.1 39.7999 167.1 39.8 167.1 39.7V39.6C167.1 39.5 167.1 39.4999 167.1 39.3999C167.1 39.2999 167.1 39.3 167.1 39.2C167.1 39.1 167.1 39 167.1 39C167.1 38.9 167.1 38.8999 167.1 38.7999C167.1 38.6999 167.1 38.6 167.1 38.5C167.1 38.4 167.1 38.3999 167.1 38.2999C167.1 38.1999 167.1 38.1 167.1 38C167.1 37.9 167.1 37.7999 167.1 37.7999C167.1 37.6999 167.1 37.4999 167.2 37.3999C167.2 37.2999 167.2 37.3 167.2 37.2C167.2 37 167.3 36.7 167.3 36.5L169.2 25.5L173.4 24.7999L174 21.5L169.7 22.2L170.5 18.3999L165.2 19.2L164.4 23L162.1 23.3999L161.5 26.7L163.9 26.2999L162.3 35.5C160.9 40 159.4 42.2999 158.3 42.3999H158.2C158.2 42.3999 158.2 42.3999 158.1 42.3999H158C158 42.3999 158 42.3999 157.9 42.2999C157.9 42.2999 157.9 42.3 157.9 42.2C157.9 42.2 157.9 42.2 157.9 42.1V42C157.9 42 157.9 41.9999 157.9 41.8999V41.7999V41.7V41.6V41.5C157.9 41.4 157.9 41.3999 157.9 41.2999V41.2C157.9 41.1 157.9 41.1 157.9 41C157.9 40.9 157.9 40.8999 157.9 40.7999C157.9 40.6999 157.9 40.6 157.9 40.6C157.9 40.5 157.9 40.4999 157.9 40.3999C157.9 40.2999 157.9 40.2 157.9 40.1C157.9 40 157.9 39.9999 157.9 39.8999C157.9 39.7999 157.9 39.7 157.9 39.6C157.9 39.5 157.9 39.3999 157.9 39.3999C157.9 39.2999 157.9 39.1 158 39C158 38.9 158 38.7999 158 38.7999C158 38.5999 158.1 38.3 158.1 38.1L160 27.1L154.7 27.8999L154.3 30.3999C154.3 30.3999 154.3 30.3999 154.3 30.2999C154.3 30.1999 154.2 30.2 154.2 30.1C154.1 30 154.1 29.8999 154 29.7999C154 29.7999 154 29.8 154 29.7C153.9 29.6 153.8 29.4999 153.7 29.2999C153.7 29.2999 153.7 29.3 153.6 29.2C153.5 29.1 153.3 28.8999 153.2 28.7999C153.2 28.7999 153.2 28.7999 153.1 28.7999C152.9 28.6999 152.7 28.6 152.5 28.5C152.3 28.4 152.1 28.2999 151.8 28.2999C151.8 28.2999 151.8 28.2999 151.7 28.2999C151.5 28.1999 151.2 28.2 150.9 28.2H150.8C150.6 28.2 150.4 28.1999 150.2 28.2999C149 28.4999 148 29.1 147.2 30.1C146.9 30.5 146.6 30.8999 146.3 31.2999C146 31.6999 145.8 32.2 145.6 32.7C144.9 34.5 144.4 36.6 144.2 38.5C143.7 40.2 143.1 41.6 142.6 42.7C141.8 44.5 141 45.4 140.3 45.6H140.2C140.2 45.6 140.2 45.6 140.1 45.6H140C140 45.6 139.9 45.6 139.9 45.5C139.9 45.5 139.9 45.4999 139.8 45.3999C139.8 45.3999 139.8 45.3999 139.8 45.2999C139.8 45.2999 139.8 45.3 139.8 45.2V45.1V45V44.8999V44.7999V44.7V44.6C139.8 44.5 139.8 44.4999 139.8 44.3999V44.2999C139.8 44.1999 139.8 44.2 139.8 44.1C139.8 44 139.8 43.9999 139.8 43.8999C139.8 43.7999 139.8 43.7 139.8 43.7C139.8 43.6 139.8 43.6 139.8 43.5C139.8 43.4 139.8 43.3 139.8 43.2C139.8 43.1 139.8 43.1 139.8 43C139.8 42.9 139.8 42.8 139.8 42.7C139.8 42.6 139.8 42.6 139.8 42.5C139.8 42.4 139.8 42.2 139.9 42.1C139.9 42 139.9 41.9999 139.9 41.8999C139.9 41.6999 140 41.4 140 41.2L141.9 30.2L136.6 31L134.9 40.7999C134.4 42.3999 134 43.4999 133.6 44.3999C133 45.7999 132.5 46.3999 131.9 46.3999H131.8C131.7 46.3999 131.7 46.3999 131.6 46.3999C131.5 46.3999 131.5 46.3 131.4 46.3C131.4 46.2 131.3 46.2 131.3 46.1C131.3 46 131.2 45.8999 131.2 45.7999C131.2 45.7999 131.2 45.8 131.2 45.7C131.2 45.6 131.2 45.3999 131.2 45.2999V45.2C131.2 45 131.2 44.8 131.2 44.6V44.5C131.2 44.3 131.2 44 131.3 43.7V43.6C131.3 43.3 131.4 42.9 131.5 42.5L133.4 31.5L128.2 32.2999L126.6 41.6C126.5 41.9 126.4 42.0999 126.3 42.3999C126.3 42.4999 126.2 42.5 126.2 42.6C126.1 42.8 126.1 42.9 126 43.1C126 43.2 125.9 43.2999 125.9 43.3999C125.8 43.5999 125.8 43.6999 125.7 43.8999C125.7 43.9999 125.6 44.1 125.6 44.2C125.5 44.3 125.5 44.5 125.4 44.6C125.4 44.7 125.3 44.7999 125.3 44.8999C125.2 44.9999 125.2 45.1999 125.1 45.2999C125.1 45.3999 125 45.5 125 45.6C124.9 45.7 124.9 45.7999 124.8 45.8999C124.7 45.9999 124.7 46.1 124.6 46.2C124.5 46.3 124.5 46.4 124.4 46.5C124.3 46.6 124.3 46.7 124.2 46.8C124.1 46.9 124.1 46.9999 124 47.0999C123.9 47.1999 123.9 47.3 123.8 47.3C123.7 47.4 123.7 47.4999 123.6 47.5999C123.5 47.6999 123.5 47.7 123.4 47.8C123.3 47.9 123.3 48 123.2 48C123.1 48.1 123.1 48.1 123 48.2C122.9 48.3 122.9 48.2999 122.8 48.3999C122.7 48.4999 122.7 48.4999 122.6 48.5999C122.5 48.6999 122.5 48.7 122.4 48.8C122.3 48.8 122.3 48.8999 122.2 48.8999C122.1 48.8999 122.1 49 122 49C121.9 49 121.9 49.0999 121.8 49.0999C121.7 49.0999 121.6 49.2 121.6 49.2C121.5 49.2 121.5 49.2 121.4 49.3C121.3 49.3 121.2 49.3 121.2 49.3C121.1 49.3 121.1 49.3 121 49.3C120.9 49.3 120.7 49.3 120.6 49.3L123.4 33.1L118.1 33.8999L117.7 36.3999C117.7 36.3999 117.7 36.3999 117.6 36.2999C117.6 36.1999 117.5 36.2 117.5 36.1C117.5 36.1 117.5 36.1 117.5 36C117.4 35.9 117.4 35.8 117.3 35.7C117.2 35.6 117.1 35.4999 117 35.2999C116.9 35.1999 116.7 34.9999 116.6 34.8999C116.6 34.8999 116.5 34.8999 116.5 34.7999C116.3 34.6999 116.2 34.6 116 34.5H115.9C115.7 34.4 115.5 34.2999 115.2 34.2999C115 34.1999 114.7 34.2 114.4 34.2H114.3C114.1 34.2 113.9 34.1999 113.6 34.2999C111.7 34.5999 110.3 35.9 109.4 37.7C108.8 38.8 108.4 39.9999 108.1 41.2999C107.7 42.9999 107.5 44.8 107.4 46.5C107.3 48.1 107.4 49.4999 107.6 50.3999C107.7 50.6999 107.7 51 107.8 51.2C107.8 51.3 107.9 51.3999 107.9 51.3999C108 51.5999 108 51.6999 108.1 51.8999C108.1 51.9999 108.2 52.1 108.2 52.2C108.3 52.3 108.4 52.4999 108.4 52.5999C108.5 52.6999 108.5 52.8 108.6 52.8C108.7 52.9 108.8 52.9999 108.9 53.0999C109 53.1999 109.1 53.2 109.1 53.3C109.2 53.4 109.3 53.4999 109.4 53.5999C109.5 53.6999 109.6 53.7 109.7 53.8C109.8 53.9 109.9 53.9 110.1 54C110.2 54 110.3 54.0999 110.4 54.0999C110.5 54.0999 110.7 54.2 110.8 54.2C110.9 54.2 111 54.2 111.1 54.2C111.3 54.2 111.6 54.2 111.8 54.2C113.2 54 114.3 52.9999 115 52.0999L113.9 59.3999C113.8 59.6999 113.8 60 113.8 60.3C113.8 60.4 113.8 60.4999 113.8 60.5999C113.8 60.7999 113.8 61 113.8 61.2C113.8 61.3 113.8 61.4 113.8 61.5C113.8 61.7 113.8 61.8 113.8 62C113.8 62.1 113.8 62.2 113.8 62.3C113.8 62.4 113.8 62.6 113.8 62.7C113.8 62.8 113.8 62.9 113.8 63C113.8 63.1 113.8 63.2999 113.9 63.3999C113.9 63.4999 113.9 63.6 114 63.7C114 63.8 114.1 63.8999 114.1 64.0999C114.1 64.1999 114.2 64.2999 114.2 64.3999C114.2 64.4999 114.3 64.6 114.3 64.7C114.3 64.8 114.4 64.9 114.4 65C114.4 65.1 114.5 65.2 114.5 65.3C114.5 65.4 114.6 65.5 114.6 65.5C114.7 65.6 114.7 65.7 114.8 65.8C114.8 65.9 114.9 65.9 114.9 66C115 66.1 115 66.2 115.1 66.2C115.2 66.3 115.2 66.2999 115.3 66.3999C115.4 66.4999 115.5 66.4999 115.5 66.5999C115.6 66.5999 115.6 66.7 115.7 66.7C115.8 66.8 115.9 66.7999 116 66.8999C116.1 66.8999 116.1 67 116.2 67C116.3 67.1 116.4 67.0999 116.5 67.0999C116.6 67.0999 116.6 67.1 116.7 67.2C116.9 67.3 117 67.3 117.2 67.3C117.2 67.3 117.2 67.3 117.3 67.3C117.5 67.3 117.6 67.3 117.8 67.3C118 67.3 118.2 67.3 118.4 67.2C120.8 66.8 122.4 63.6 123.3 60.3C123.5 59.6 123.6 59 123.7 58.3C123.9 57 124.1 55.8 124.1 54.8C124.1 53.6 124 52.7 123.7 52C123.6 51.8 123.5 51.5 123.4 51.3C124 51 124.6 50.4999 125.1 49.8999C125.6 49.2999 126.1 48.6999 126.5 47.8999C126.6 48.1999 126.7 48.4 126.8 48.7C126.8 48.8 126.9 48.7999 126.9 48.8999C127 49.0999 127.1 49.2 127.1 49.3C127.1 49.4 127.2 49.4 127.3 49.5C127.4 49.6 127.5 49.7 127.6 49.8C127.7 49.9 127.7 49.9 127.8 50C127.9 50.1 128 50.2 128.1 50.2C128.2 50.3 128.2 50.3 128.3 50.3C128.4 50.4 128.5 50.4 128.6 50.5C128.7 50.5 128.7 50.5999 128.8 50.5999C128.9 50.5999 129 50.7 129.2 50.7C129.3 50.7 129.3 50.7 129.4 50.8C129.6 50.8 129.7 50.8 129.9 50.8H130C130.2 50.8 130.4 50.8 130.7 50.7C132.7 50.4 134.1 48.9 135.1 46.7C135.2 47 135.3 47.1999 135.4 47.3999C135.4 47.4999 135.5 47.4999 135.5 47.5999C135.6 47.6999 135.7 47.9 135.8 48C135.9 48.1 135.9 48.1 136 48.2C136.1 48.3 136.2 48.4 136.3 48.5C136.4 48.6 136.4 48.6 136.5 48.7C136.6 48.8 136.7 48.7999 136.8 48.8999C136.9 48.8999 136.9 49 137 49C137.1 49.1 137.2 49.1 137.3 49.2C137.4 49.2 137.4 49.3 137.5 49.3C137.6 49.3 137.8 49.3999 137.9 49.3999H138C138.2 49.3999 138.4 49.3999 138.6 49.3999C138.8 49.3999 139 49.4 139.2 49.3C140 49.2 140.8 48.8 141.6 48.2C142.1 47.8 142.5 47.4 143 46.8C143.6 46 144.2 45.1 144.8 44C144.9 44.3 144.9 44.4999 145 44.7999C145 44.8999 145.1 45 145.1 45C145.2 45.2 145.2 45.3 145.3 45.5C145.3 45.6 145.4 45.6999 145.4 45.7999C145.5 45.8999 145.6 46.1 145.6 46.2C145.7 46.3 145.7 46.3999 145.8 46.3999C145.9 46.4999 146 46.6 146.1 46.7C146.2 46.8 146.2 46.7999 146.3 46.8999C146.4 46.9999 146.5 47.0999 146.6 47.0999C146.7 47.1999 146.8 47.2 146.9 47.3C147 47.4 147.1 47.4 147.2 47.5C147.3 47.5 147.4 47.5999 147.5 47.5999C147.6 47.5999 147.8 47.7 147.9 47.7C148 47.7 148.1 47.7 148.2 47.7C148.4 47.7 148.6 47.7 148.9 47.7C151.6 47.3 153.2 44 153.2 44C153.2 44 153.2 44 153.2 44.1C153.2 44.2 153.3 44.1999 153.3 44.2999C153.4 44.3999 153.4 44.5 153.5 44.6C153.5 44.6 153.5 44.6 153.5 44.7C153.6 44.8 153.7 45 153.8 45.1C153.8 45.1 153.8 45.1 153.9 45.2C154 45.3 154.2 45.5 154.3 45.6C154.3 45.6 154.3 45.6 154.4 45.6C154.6 45.7 154.8 45.9 155 46C155.2 46.1 155.4 46.2 155.7 46.3C155.7 46.3 155.7 46.3 155.8 46.3C156 46.4 156.3 46.3999 156.6 46.3999H156.7C156.9 46.3999 157.1 46.4 157.4 46.3C159.7 45.9 161.4 44.2 162.8 41.7C162.9 42 163 42.3 163.1 42.5C163.1 42.6 163.2 42.7 163.2 42.7C163.3 42.9 163.4 43 163.4 43.1C163.5 43.2 163.5 43.2999 163.6 43.2999C163.7 43.3999 163.8 43.5 163.9 43.6C164 43.7 164 43.6999 164.1 43.7999C164.2 43.8999 164.3 44 164.4 44C164.5 44.1 164.5 44.1 164.6 44.1C164.7 44.2 164.8 44.1999 164.9 44.2999C165 44.2999 165 44.3999 165.1 44.3999C165.2 44.3999 165.4 44.5 165.5 44.5C165.6 44.5 165.6 44.5 165.7 44.5C165.9 44.5 166.1 44.6 166.3 44.6C166.5 44.6 166.8 44.6 167 44.5C169.7 44.1 171.7 41.6 173.2 38.5C173.3 38.8 173.5 39.2 173.6 39.5C173.7 39.6 173.7 39.6999 173.8 39.7999C173.9 39.9999 174 40.1999 174.2 40.3999C174.3 40.4999 174.4 40.6 174.4 40.7C174.5 40.9 174.7 41 174.8 41.1C174.9 41.2 175 41.2999 175.1 41.2999C175.3 41.3999 175.4 41.5 175.6 41.6C175.7 41.7 175.8 41.6999 175.9 41.7999C176.1 41.8999 176.3 42 176.5 42.1C176.6 42.1 176.7 42.2 176.8 42.2C177.1 42.3 177.5 42.3999 177.8 42.3999C177.8 42.3999 177.8 42.3999 177.9 42.3999C178.2 42.3999 178.6 42.5 179 42.5C179.5 42.5 180 42.4999 180.5 42.3999C181.2 42.2999 181.9 42.0999 182.6 41.8999C183.2 41.6999 183.9 41.4 184.4 41C185.5 40.3 186.5 39.5 187.3 38.5L186.9 40.8999L192.2 40.1L194.3 28.2C195.3 26.4 196.5 25.3999 197.2 25.2999C197.3 25.2999 197.4 25.2999 197.5 25.2999H197.6C197.7 25.2999 197.7 25.2999 197.8 25.3999C197.8 25.3999 197.9 25.4 197.9 25.5L198 25.6C198 25.6 198 25.6 198.1 25.7C198.1 25.8 198.2 25.9 198.2 26C198.2 26.1 198.2 26.1999 198.2 26.3999L196.7 36C196.7 36.2 196.7 36.5 196.7 36.7C196.7 36.8 196.7 36.8999 196.7 36.8999C196.7 37.0999 196.7 37.1999 196.8 37.2999C196.8 37.3999 196.9 37.5 196.9 37.5C197 37.6 197 37.6999 197.1 37.8999C197.1 37.9999 197.2 38.1 197.3 38.1C197.4 38.2 197.5 38.2999 197.5 38.3999C197.6 38.4999 197.6 38.5 197.7 38.6C197.8 38.7 197.9 38.7999 198 38.7999C198.1 38.8999 198.2 38.9 198.2 39C198.3 39.1 198.4 39.1 198.5 39.2C198.6 39.2 198.7 39.2999 198.8 39.2999C198.9 39.2999 199 39.3999 199.2 39.3999C199.3 39.3999 199.4 39.3999 199.5 39.3999C199.7 39.3999 199.9 39.3999 200.1 39.3999L201 39.2C201 39.2 201 39.2 201.1 39.2L213.6 37.1L213.7 36.6L214.8 30.3999L201.2 34.2999ZM116.5 40L115.6 45.3999C115.6 45.3999 115.6 45.4 115.6 45.5C115.6 45.6 115.5 45.6999 115.5 45.7999C115.5 45.8999 115.4 46 115.3 46.2C115.3 46.2 115.3 46.2 115.3 46.3C115.2 46.4 115.1 46.6 115.1 46.7C115.1 46.7 115.1 46.7 115.1 46.8C115 46.9 114.9 47.1 114.8 47.2C114.8 47.2 114.8 47.2 114.7 47.3C114.6 47.4 114.5 47.6 114.3 47.7C114.3 47.7 114.3 47.7 114.2 47.7C114.1 47.8 113.9 47.9 113.7 48C113.5 48.1 113.3 48.2 113.1 48.2C113 48.2 112.9 48.2 112.8 48.2H112.7C112.6 48.2 112.6 48.1999 112.5 48.0999C112.5 48.0999 112.4 48.1 112.4 48C112.3 48 112.3 47.9 112.2 47.8L112.1 47.7C112 47.6 112 47.5 111.9 47.3C111.8 46.8 111.8 46 111.9 45.1C112 44.4 112.1 43.7 112.2 43C112.3 42.8 112.3 42.4999 112.4 42.2999C112.5 41.7999 112.7 41.2999 112.9 40.8999C113.2 39.9999 113.7 39.2999 114.2 38.8999C114.5 38.6999 114.7 38.5 115 38.5C115.1 38.5 115.2 38.5 115.4 38.5H115.5C115.6 38.5 115.7 38.6 115.8 38.6C115.8 38.6 115.8 38.6 115.9 38.6C116 38.7 116.1 38.7999 116.2 38.8999C116.2 38.8999 116.2 39 116.3 39C116.3 39.1 116.4 39.1 116.4 39.2C116.4 39.2 116.4 39.2999 116.5 39.2999C116.5 39.3999 116.6 39.4 116.6 39.5V39.6C116.6 39.7 116.6 39.6999 116.7 39.7999C116.7 39.7999 116.7 39.7999 116.7 39.8999C116.5 39.8999 116.5 40 116.5 40C116.6 40 116.6 40 116.5 40ZM121 54.3C120.8 55.9 120.5 58.2999 120 60.0999C119.9 60.4999 119.8 60.9 119.6 61.2C119.4 61.7 119.2 62.0999 119 62.3999C118.8 62.5999 118.7 62.7 118.5 62.7C118.4 62.7 118.4 62.7 118.3 62.7C118.3 62.7 118.3 62.7 118.2 62.7H118.1C118.1 62.7 118.1 62.6999 118 62.5999C118 62.5999 118 62.6 118 62.5V62.3999V62.3V62.2V62.0999C118 61.9999 118 61.9999 118 61.8999V61.8C118 61.7 118 61.6 118 61.5V61.3999C118 61.1999 118 61.0999 118.1 60.8999L119.6 51.7C120.4 51.7 121.3 52.5 121 54.3ZM152.4 39.6C152.4 39.6 152.3 39.8999 152 40.3999C151.8 40.6999 151.6 40.9999 151.4 41.2999C151.3 41.4999 151.1 41.6 151 41.7C150.7 42 150.3 42.2 149.9 42.2C149.8 42.2 149.7 42.2 149.6 42.2H149.5C149.4 42.2 149.4 42.1 149.3 42.1C149.3 42.1 149.2 42.1 149.2 42C149.1 41.9 149.1 41.8999 149 41.7999L148.9 41.7C148.8 41.6 148.8 41.4 148.8 41.2C148.7 40.8 148.7 40.3 148.8 39.7C148.9 38.7 149.1 37.3999 149.4 36.2999C149.5 35.7999 149.7 35.4 149.8 35C149.9 34.8 150 34.5999 150.1 34.3999C150.5 33.5999 150.9 33.0999 151.4 32.7999C151.5 32.6999 151.7 32.7 151.8 32.7C151.9 32.7 152 32.7 152.1 32.7C152.2 32.7 152.2 32.7 152.3 32.7C152.4 32.7 152.4 32.7999 152.5 32.7999L152.6 32.8999C152.7 32.8999 152.7 33 152.7 33L152.8 33.1C152.8 33.2 152.9 33.1999 152.9 33.2999L153 33.3999C153 33.4999 153.1 33.5 153.1 33.6C153.1 33.6 153.1 33.7 153.2 33.7C153.2 33.8 153.2 33.7999 153.3 33.8999V34C153.3 34.1 153.3 34.1 153.3 34.1V34.2L152.4 39.6Z" fill="#213521"/>
<path d="M105.499 28C106.299 27.3 111.499 26.3 112.499 26.1C112.599 25.8 112.599 25.2999 112.699 24.7999C112.799 24.2999 112.899 23.7 112.999 23.1C113.499 19.4 113.499 14.0999 108.399 12.7999C107.899 12.6999 107.499 12.6 107.099 12.5C106.999 12.5 106.799 12.5 106.699 12.5C106.399 12.5 106.099 12.3999 105.899 12.3999C105.699 12.3999 105.499 12.3999 105.299 12.3999C105.199 12.3999 105.099 12.3999 104.899 12.3999C104.599 12.3999 104.399 12.5 104.199 12.5C104.099 12.5 104.099 12.5 103.999 12.5C103.699 12.6 103.399 12.6 103.099 12.7C102.999 12.7 102.999 12.6999 102.899 12.7999C102.699 12.8999 102.499 12.9 102.299 13C102.199 13 102.099 13.1 101.999 13.1C101.799 13.2 101.699 13.2999 101.499 13.2999C101.399 13.2999 101.299 13.4 101.199 13.5C100.999 13.6 100.899 13.6999 100.699 13.7999C100.599 13.8999 100.499 13.9 100.399 14C100.199 14.1 100.099 14.1999 99.8992 14.2999C99.7992 14.3999 99.7992 14.4 99.6992 14.5C99.4992 14.6 99.2992 14.7999 99.1992 14.8999C99.1992 14.8999 99.0992 14.9 99.0992 15C98.8992 15.2 98.6992 15.3 98.4992 15.5C98.3992 15.6 98.3992 15.6 98.2992 15.7C98.1992 15.8 98.0992 15.9 97.8992 16C97.7992 16.1 97.7992 16.1 97.6992 16.2C97.5992 16.3 97.4992 16.4 97.3992 16.5C97.2992 16.6 97.2992 16.6 97.1992 16.7C97.0992 16.8 96.9992 16.9 96.9992 17C96.9992 17.1 96.8992 17.1 96.8992 17.2C96.7992 17.3 96.6992 17.4 96.6992 17.5L96.5992 17.6C96.4992 17.7 96.3992 17.8 96.2992 18C94.8992 19.8 94.0992 22.8 93.7992 26C93.4992 29.2 94.0992 33.3 95.4992 38.2C95.7992 38.9 95.9992 39.8 96.2992 40.6C96.7992 42.2 97.3992 44.4 97.2992 46.3C97.2992 46.7 97.1992 46.9999 97.1992 47.3999C97.1992 47.4999 97.0992 47.6 97.0992 47.7C96.9992 47.9 96.9992 48.1999 96.8992 48.3999C96.8992 48.4999 96.7992 48.6 96.6992 48.8C96.5992 49 96.4992 49.2 96.4992 49.3C96.3992 49.4 96.3992 49.4999 96.2992 49.5999C96.1992 49.6999 96.0992 49.9 95.9992 50C95.8992 50.1 95.7992 50.2 95.6992 50.3C95.5992 50.4 95.4992 50.4999 95.2992 50.5999C95.1992 50.6999 95.0992 50.7 94.9992 50.8C94.8992 50.9 94.6992 51 94.5992 51C94.4992 51.1 94.2992 51.0999 94.1992 51.0999C93.9992 51.0999 93.8992 51.2 93.6992 51.2C93.5992 51.2 93.3992 51.2 93.1992 51.2C92.8992 51.2 92.6992 51.2 92.3992 51.2C88.6992 50.9 87.2992 48.5 86.8992 46C86.8992 45.7 86.7992 45.4 86.7992 45.1C86.7992 44.7 86.7992 44.4 86.7992 44.1C86.7992 44 86.7992 43.9999 86.7992 43.8999C86.7992 43.6999 86.7992 43.4999 86.7992 43.2999C86.7992 42.9999 86.7992 42.7 86.8992 42.5L84.4992 42.8999L78.8992 43.7L74.2992 44.3999L66.5992 45.6L66.2992 47L65.1992 51.7L77.0992 48.5999C77.1992 48.9999 77.2992 49.3 77.3992 49.7C77.3992 49.8 77.4992 49.8999 77.4992 50.0999C77.5992 50.2999 77.6992 50.6 77.6992 50.8C77.7992 50.9 77.7992 51.1 77.8992 51.2C77.9992 51.4 78.0992 51.5999 78.1992 51.8999C78.2992 52.0999 78.3992 52.2 78.3992 52.3C78.4992 52.5 78.5992 52.6999 78.6992 52.8999C78.7992 53.0999 78.8992 53.2 78.9992 53.3C79.0992 53.5 79.1992 53.6999 79.3992 53.8999C79.4992 53.9999 79.5992 54.2 79.6992 54.3C79.7992 54.5 79.9992 54.7 80.0992 54.8C80.1992 54.9 80.2992 55.1 80.4992 55.2C80.6992 55.4 80.7992 55.5 80.9992 55.7C81.0992 55.8 81.2992 55.9999 81.3992 56.0999C81.5992 56.2999 81.6992 56.3999 81.8992 56.5999C81.9992 56.6999 82.1992 56.7999 82.2992 56.8999C82.4992 56.9999 82.6992 57.2 82.8992 57.3C82.9992 57.4 83.1992 57.4999 83.2992 57.5999C83.4992 57.6999 83.6992 57.9 83.8992 58C83.9992 58.1 84.1992 58.2 84.2992 58.3C84.4992 58.4 84.7992 58.5 84.9992 58.7C85.0992 58.8 85.2992 58.7999 85.3992 58.8999C85.7992 59.0999 86.0992 59.2 86.4992 59.3H86.5992C86.9992 59.4 87.3992 59.4999 87.8992 59.5999C87.9992 59.5999 88.1992 59.6 88.2992 59.7C88.5992 59.7 88.8992 59.8 89.1992 59.8C89.3992 59.8 89.5992 59.8 89.6992 59.8C89.9992 59.8 90.2992 59.8 90.4992 59.8C91.0992 59.8 91.5992 59.8 92.1992 59.7C93.5992 59.5 94.7992 59.2 95.9992 58.7C97.1992 58.2 98.2992 57.5999 99.2992 56.8999C99.7992 56.4999 100.299 56.2 100.699 55.8C101.599 55 102.399 54.0999 102.999 53.0999C103.299 52.5999 103.599 52.1 103.899 51.5C103.999 51.3 103.999 51.2 104.099 51C104.999 48.9 105.299 46.6 104.999 44C104.899 42.8 104.599 41.4999 104.099 40.2999C103.999 40.0999 103.999 39.8999 103.899 39.7999C103.299 38.2999 102.599 36.7999 101.599 35.2999C101.299 34.7999 100.999 34.2999 100.799 33.8999C100.299 32.9999 99.8992 32 99.4992 31.1C99.2992 30.7 99.1992 30.1999 99.0992 29.7999C98.6992 28.0999 98.4992 26.5 98.5992 25C98.6992 23.8 98.8992 22.9 99.0992 22C99.2992 21.1 99.6992 20.4 100.099 19.7C100.299 19.4 100.499 19.0999 100.699 18.7999C101.399 17.9999 102.099 17.4 102.799 17.2C102.999 17.1 103.199 17.1 103.499 17.1C103.599 17.1 103.599 17.1 103.699 17.1C103.899 17.1 104.099 17.1 104.299 17.1C104.499 17.1 104.699 17.1999 104.899 17.2999C104.899 17.2999 104.999 17.2999 104.999 17.3999C105.199 17.4999 105.399 17.5999 105.499 17.7999C106.099 18.2999 106.499 19 106.599 20C106.699 20.3 106.699 20.7 106.699 21.1C106.699 22.4 106.499 23.9999 105.799 25.7999C105.999 26.5999 105.799 27.3 105.499 28Z" fill="#213521"/>
<path d="M222.399 33.6999C222.499 35.3999 221.299 36.7999 219.599 36.8999C217.899 36.9999 216.499 35.7999 216.399 34.1999C216.299 32.5999 217.499 31.1999 219.199 31.0999C220.899 30.8999 222.299 32.0999 222.399 33.6999ZM217.199 34.0999C217.299 35.7999 218.999 36.8999 220.899 35.8999C221.099 35.7999 221.299 35.5999 221.499 35.2999C222.399 33.2999 221.199 31.4999 219.399 31.5999C217.999 31.6999 217.099 32.7999 217.199 34.0999ZM219.099 35.5H218.399L218.199 32.5999C218.499 32.4999 218.799 32.4999 219.299 32.3999C219.899 32.3999 220.099 32.4 220.299 32.5C220.499 32.6 220.599 32.7999 220.599 33.0999C220.599 33.3999 220.399 33.6999 219.999 33.7999C220.299 33.8999 220.499 34.1 220.599 34.5C220.699 34.9 220.799 35.0999 220.899 35.1999L220.199 35.2999C220.099 35.1999 219.999 34.8999 219.899 34.5999C219.799 34.2999 219.599 34.1999 219.299 34.1999H218.999L219.099 35.5ZM218.999 33.8999H219.299C219.699 33.8999 219.999 33.6999 219.899 33.3999C219.899 33.0999 219.699 33 219.199 33C218.999 33 218.899 32.9999 218.799 33.0999L218.999 33.8999Z" fill="#213521"/>
<path d="M29.599 73.0999C44.2898 73.0999 56.199 57.4747 56.199 38.2C56.199 18.9252 44.2898 3.29993 29.599 3.29993C14.9082 3.29993 2.99902 18.9252 2.99902 38.2C2.99902 57.4747 14.9082 73.0999 29.599 73.0999Z" fill="#BDA888"/>
<path d="M61.8992 23.6C61.8992 21 59.7992 19 57.2992 19C56.6992 19 56.0992 19.0999 55.4992 19.3999C55.1992 18.6999 54.8992 18.1 54.4992 17.5C57.7992 17.3 60.3992 14.5 60.3992 11.1C60.3992 7.59998 57.4992 4.79993 53.9992 4.79993C52.2992 4.79993 50.6992 5.49995 49.4992 6.69995C48.8992 7.29995 48.3992 7.99993 48.0992 8.79993C43.6992 4.49993 38.3992 1.6 32.4992 1C32.3992 1 32.3992 1 32.2992 1C31.8992 1 31.5992 0.899902 31.1992 0.899902C31.0992 0.899902 31.0992 0.899902 30.9992 0.899902C30.5992 0.899902 30.1992 0.899902 29.7992 0.899902C13.4992 0.899902 0.199219 17.5999 0.199219 38.2999C0.199219 58.9999 13.3992 75.7 29.7992 75.7C46.0992 75.7 59.3992 58.9999 59.3992 38.2999C59.3992 37.8999 59.3992 37.5 59.3992 37.1C59.3992 37 59.3992 36.8999 59.3992 36.7999C59.3992 36.4999 59.3992 36.1999 59.3992 35.8999C59.3992 35.7999 59.3992 35.7 59.3992 35.7C59.3992 34.9 59.2992 34.0999 59.1992 33.2999C59.1992 33.2999 59.1992 33.3 59.1992 33.2C58.9992 31.5 58.6992 29.8999 58.3992 28.2999C60.3992 27.5999 61.8992 25.8 61.8992 23.6ZM29.8992 74.2C14.3992 74.2 1.79922 58.1 1.79922 38.2C1.79922 18.3 14.3992 2.19995 29.8992 2.19995C36.6992 2.19995 42.8992 5.29993 47.6992 10.2999C47.6992 10.4999 47.6992 10.8 47.6992 11.1C47.6992 14.2 49.8992 16.6999 52.7992 17.2999C53.2992 18.1999 53.7992 19.1 54.1992 20.1C53.1992 20.9 52.5992 22.2 52.5992 23.6C52.5992 24.8 53.0992 25.9999 53.8992 26.8999C54.6992 27.6999 55.6992 28.2 56.8992 28.2C57.5992 31.4 57.9992 34.7 57.9992 38.2C57.9992 58.1 45.3992 74.2 29.8992 74.2Z" fill="#BDA888"/>
<path d="M35.1986 49.0999C35.2986 48.6999 35.5986 47.9 35.6986 47.2C35.6986 47.2 35.5986 47.1999 35.5986 47.0999C35.3986 46.9999 35.0986 47 34.8986 47C34.3986 47 33.7986 46.9999 33.2986 47.0999C32.8986 47.1999 32.4986 47.2999 32.0986 47.3999C32.2986 47.7999 32.7986 48.7 33.0986 49.3C33.8986 49 34.7986 49.0999 35.1986 49.0999Z" fill="#CC6328"/>
<path d="M38.8986 46.5999C38.2986 46.4999 37.7986 46.4 37.1986 46.2C37.1986 46.3 37.0986 46.4 37.0986 46.5C36.9986 46.8 36.7986 47.1 36.5986 47.5L36.3986 47.8L36.0986 47.5999C35.9986 48.3999 35.6986 49.3 35.5986 49.5C35.9986 50.2 36.3986 51 36.7986 51.8C37.0986 52.4 37.3986 52.9999 37.5986 53.5999C38.2986 49.8999 38.6986 47.5999 38.8986 46.5999Z" fill="#5A3714"/>
<path d="M30.3986 34.1C30.1986 34.1 29.5986 34.9999 29.0986 35.8999C29.4986 35.9999 29.8986 36 30.2986 36.1C30.6986 36.1 31.0986 36.2 31.3986 36.2C30.9986 35.2 30.4986 34.2 30.3986 34.1Z" fill="white"/>
<path d="M32.999 35C32.799 35 32.299 35.7 32.099 36.1C32.099 36.1 32.099 36.2 31.999 36.2C32.199 36.2 32.399 36.2 32.699 36.2C33.099 36.2 33.599 36.2 33.999 36.2C33.699 35.6 33.199 35 32.999 35Z" fill="white"/>
<path d="M31.0988 72.8C37.8988 72.8 48.3988 63.7 48.3988 59.5C47.0988 55.5 44.0988 51.2 42.8988 49.7C42.7988 51 42.5988 52.3999 42.2988 52.5999H42.1988H42.0988C41.1988 52.6999 40.3988 52.8999 40.2988 53.0999C40.3988 53.1999 40.4988 53.2 40.5988 53.3C40.9988 53.6 41.7988 54.1 41.7988 55.2C41.7988 56.2 39.1988 61.4999 37.0988 65.5999L34.2988 70.2C34.8988 67 35.6988 62.9999 35.8988 62.0999L35.7988 61.8999C33.7988 58.7999 30.3988 57.5 28.6988 56.8C28.0988 56.6 27.8988 56.4999 27.7988 56.3999C27.4988 56.0999 27.5988 55.3 27.6988 54.2C27.6988 54 27.7988 53.7 27.7988 53.5C27.6988 53.6 27.5988 53.6 27.3988 53.7C26.9988 54 26.3988 54.2999 25.7988 54.3999C24.8988 54.4999 17.6988 49.2 16.1988 47.8C15.3988 48.5 11.7988 51.9999 9.19879 56.5999C9.09879 65.0999 22.5988 72.8 31.0988 72.8Z" fill="#911A1D"/>
<path d="M31.7984 62.7C31.7984 62.9 31.5984 63.0999 31.2984 63.0999L29.9984 63.3C27.5984 63.7 25.0984 63.7999 22.5984 63.5999L19.9984 63.3C19.3984 63.2 18.8984 62.9 18.8984 62.5V61.5999C18.8984 61.4999 18.9984 61.3 19.0984 61.3C19.2984 61.1 19.4984 61.0999 19.7984 61.0999H19.8984L21.7984 61.3999C23.7984 61.5999 25.8984 61.5999 27.9984 61.3999L31.1984 61.0999C31.3984 61.0999 31.5984 61.1 31.6984 61.2C31.6984 61.2 31.7984 61.2999 31.7984 61.3999V62.7V62.7Z" fill="#213521"/>
<path d="M37.4992 54.1C37.2992 53.3 36.8992 52.5001 36.4992 51.7001C36.0992 51.0001 35.6992 50.2001 35.2992 49.5001C34.9992 49.5001 34.0992 49.4002 33.0992 49.8002L32.9992 50.3002V50.4C33.0992 50.6 33.2992 50.9 33.3992 51.1L33.4992 51.3002L33.2992 51.4C33.1992 51.5 33.0992 51.5001 32.8992 51.5001L32.6992 55.0001C34.2992 57.0001 35.5992 58.7001 36.1992 59.5001C36.7992 57.5001 37.0992 55.7 37.4992 54.1Z" fill="#CC6328"/>
<path d="M35.7988 28.7C35.7988 29.7 36.5988 30.5 37.5988 30.5C38.5988 30.5 39.3988 29.7 39.3988 28.7C39.3988 27.7 38.5988 26.8999 37.5988 26.8999C36.5988 26.8999 35.7988 27.7 35.7988 28.7Z" fill="white"/>
<path d="M29.9984 28.7C29.9984 27.7 29.1984 26.8999 28.1984 26.8999C27.1984 26.8999 26.3984 27.7 26.3984 28.7C26.3984 29.7 27.1984 30.5 28.1984 30.5C29.1984 30.5 29.9984 29.7 29.9984 28.7Z" fill="white"/>
<path d="M18.2988 43.6L17.5988 44.2C18.2988 44.6 18.9988 44.8 19.7988 45C20.6988 45.2 21.5988 45.3 22.4988 45.2H22.7988C22.8988 45.2 22.9988 45.2 23.1988 45.2C23.4988 45.2 23.6988 45.2 23.9988 45.2C24.4988 45.2 24.9988 45.3 25.4988 45.5C26.3988 45.8 27.0988 46.3 27.6988 47C27.7988 46.9 27.8988 46.9 27.9988 46.8C28.1988 46.7 28.2988 46.6 28.4988 46.5C28.7988 46.3 29.0988 46.2 29.3988 46.1C29.2988 45.9 29.2988 45.7 29.1988 45.6C29.3988 45.5 29.5988 45.5 29.6988 45.7C29.7988 45.8 29.7988 45.9 29.7988 46C29.8988 46.2 29.9988 46.4 29.9988 46.7C30.0988 47 30.1988 47.2999 30.1988 47.5999C30.5988 47.3999 30.9988 47.1999 31.3988 47.0999C31.8988 46.8999 32.4988 46.6999 32.9988 46.5999C33.5988 46.4999 34.0988 46.4 34.6988 46.5C34.9988 46.5 35.2988 46.4999 35.5988 46.5999C35.6988 46.5999 35.8988 46.7 35.9988 46.8C35.9988 46.8 36.0988 46.7999 36.0988 46.8999C36.1988 46.6999 36.2988 46.5 36.3988 46.3C36.4988 46.1 36.5988 45.9999 36.5988 45.7999C36.6988 45.5999 36.8988 45.5 37.1988 45.5C37.1988 45.6 37.0988 45.6999 37.0988 45.7999C37.3988 45.8999 37.6988 46 37.9988 46C38.3988 46.1 38.7988 46.1 39.1988 46.1C39.5988 46.1 39.9988 45.9999 40.2988 45.8999C40.4988 45.7999 40.6988 45.8 40.8988 45.6C40.8988 45.6 40.8988 45.6 40.7988 45.6C40.6988 45.5 40.4988 45.4 40.3988 45.2C40.2988 45.1 40.0988 44.9 39.9988 44.7C39.8988 44.5 39.7988 44.3 39.6988 44.1L39.5988 43.8999L39.7988 43.7999C40.0988 43.5999 40.2988 43.4 40.4988 43.2C40.5988 43.1 40.6988 42.9999 40.7988 42.7999L40.8988 42.7C40.7988 42.6 40.6988 42.4999 40.6988 42.3999C40.5988 42.1999 40.3988 42 40.3988 41.7C40.2988 41.5 40.2988 41.2 40.1988 41C40.1988 40.8 40.1988 40.4999 40.1988 40.2999H40.5988V40.6C40.7988 40.7 40.8988 40.7 41.0988 40.7C41.1988 40.7 41.1988 40.7 41.2988 40.7C41.1988 40.5 41.1988 40.3 41.1988 40.2C41.1988 39.9 41.1988 39.5999 41.1988 39.2999C41.1988 38.8999 41.2988 38.6 41.2988 38.2C41.0988 38 40.8988 37.8 40.6988 37.6C40.4988 37.5 40.3988 37.3 40.1988 37.2C40.0988 37.1 39.9988 37.1 39.9988 37C39.9988 37.2 39.9988 37.3 39.9988 37.5C39.9988 37.8 39.8988 38.0999 39.6988 38.2999C39.4988 38.4999 39.2988 38.6999 39.0988 38.8999C38.8988 38.9999 38.5988 39.1 38.3988 39.2C38.2988 39.4 38.0988 39.6999 37.8988 39.7999L37.7988 39.6C37.9988 39.4 38.0988 39.2 38.1988 39C38.1988 38.9 38.2988 38.7 38.2988 38.6C37.3988 38.9 36.4988 39.0999 35.5988 39.2999C34.5988 39.4999 33.4988 39.6 32.4988 39.6C31.4988 39.6 30.3988 39.4999 29.3988 39.3999C28.8988 39.2999 28.3988 39.2 27.8988 39.1C27.5988 39 27.3988 38.9999 27.0988 38.8999C26.9988 38.8999 26.7988 38.7999 26.6988 38.7999C26.5988 38.7999 26.4988 38.7 26.4988 38.7C26.4988 38.7 26.4988 38.6999 26.4988 38.7999C26.2988 39.0999 25.9988 39.4 25.7988 39.6L25.5988 39.3999C25.7988 39.1999 26.0988 38.9 26.2988 38.7C26.3988 38.5 26.5988 38.3 26.6988 38C26.3988 38 26.0988 37.9999 25.7988 37.8999C25.3988 37.7999 25.0988 37.7 24.6988 37.6C24.2988 37.5 23.9988 37.3 23.6988 37.1C23.3988 36.9 23.0988 36.7 22.7988 36.5L22.5988 36.3999L22.7988 36.2L23.9988 35.1C23.8988 35 23.7988 34.8 23.6988 34.6C23.5988 34.4 23.4988 34.1999 23.3988 33.8999V33.7H23.5988C23.6988 33.7 23.7988 33.7 23.7988 33.6C23.8988 33.6 23.9988 33.5 23.9988 33.5C24.0988 33.5 24.0988 33.3999 24.1988 33.3999C23.9988 33.1999 23.7988 32.9999 23.6988 32.7999C23.4988 32.4999 23.3988 32.1999 23.1988 31.8999C23.0988 31.5999 22.9988 31.3 22.8988 31C22.8988 30.8 22.7988 30.7 22.7988 30.5L22.6988 30L22.5988 29.6L22.9988 29.7C23.1988 29.8 23.4988 29.8999 23.6988 29.8999C23.7988 29.8999 23.8988 29.8999 24.0988 29.8999H24.1988C24.1988 29.7999 24.0988 29.7 24.0988 29.6C24.0988 29.4 23.9988 29.2 23.9988 29C23.9988 28.6 23.9988 28.1999 24.0988 27.7999C24.1988 27.3999 24.2988 27 24.3988 26.6L24.5988 26L24.7988 25.6C24.5988 25.5 24.4988 25.4 24.2988 25.2C24.0988 25 23.9988 24.7 23.8988 24.5C23.7988 23.9 23.8988 23.2999 24.2988 22.8999L24.3988 22.7999L24.4988 23C24.7988 23.4 25.1988 23.6999 25.6988 23.7999C26.0988 23.8999 26.4988 24 26.8988 24C26.6988 23.7 26.4988 23.4 26.3988 23C26.2988 22.8 26.2988 22.5999 26.1988 22.2999C26.1988 22.0999 26.1988 21.8 26.2988 21.6L26.5988 21.7C26.5988 21.8 26.5988 21.9 26.5988 22C26.6988 22 26.7988 22 26.9988 22C27.1988 22 27.3988 22.0999 27.4988 22.2999C27.7988 22.4999 27.9988 22.8 28.0988 23.1C28.2988 23.4 28.3988 23.6999 28.5988 23.8999C28.6988 24.0999 28.7988 24.1999 28.9988 24.2999C28.9988 24.1999 29.0988 24.2 29.0988 24.1C29.1988 23.9 29.2988 23.5999 29.3988 23.3999L29.5988 23L29.7988 23.2999C30.3988 24.1999 31.0988 25.0999 31.8988 25.7999C32.2988 26.1999 32.6988 26.4999 33.1988 26.7999C33.4988 26.9999 33.8988 27.1999 34.2988 27.3999C34.1988 26.8999 34.0988 26.5 34.0988 26C34.0988 25.7 33.9988 25.4 33.9988 25.1C33.9988 24.8 33.9988 24.5 33.9988 24.2L34.0988 23.7999L34.3988 24.1C34.5988 24.2 34.6988 24.4 34.8988 24.5C34.9988 24.6 35.0988 24.6 35.2988 24.7C35.3988 24.2 35.3988 23.7999 35.4988 23.2999C35.5988 22.7999 35.6988 22.3 35.8988 21.7L36.1988 21.7999C36.0988 21.9999 36.0988 22.1999 35.9988 22.3999C35.9988 22.3999 35.9988 22.3999 36.0988 22.3999C36.1988 22.3999 36.2988 22.3999 36.3988 22.3999C36.5988 22.3999 36.7988 22.5 36.9988 22.6H37.0988V22.7C37.1988 23 37.3988 23.3 37.4988 23.6C37.6988 23.9 37.7988 24.1999 37.9988 24.3999C38.1988 24.6999 38.2988 24.9999 38.3988 25.2999C38.4988 25.4999 38.4988 25.8 38.4988 26H39.5988V26.6L37.9988 26.5C38.8988 26.7 39.5988 27.6 39.5988 28.5C39.5988 28.9 39.4988 29.4 39.1988 29.7C39.1988 30.2 39.2988 30.7 39.4988 31.2C39.5988 31.4 39.6988 31.6 39.8988 31.7C40.0988 31.8 40.2988 31.7999 40.4988 31.7999H40.6988V32C40.7988 32.5 40.6988 33 40.4988 33.5C40.3988 33.7 40.2988 34 40.0988 34.1C39.9988 34.2 39.7988 34.3999 39.5988 34.3999C39.5988 34.5999 39.5988 34.6999 39.6988 34.8999C39.7988 35.0999 39.7988 35.3 39.8988 35.5H39.9988C40.6988 35.7 41.2988 35.9999 41.7988 36.3999C41.7988 36.1999 41.7988 35.9 41.7988 35.7C41.7988 35.4 41.7988 35.1999 41.6988 34.8999C41.6988 34.7999 41.5988 34.6 41.5988 34.5C41.5988 34.4 41.4988 34.2 41.4988 34.2L41.1988 33.7H41.7988C41.8988 33.7 41.9988 33.7 42.0988 33.7C42.1988 33.7 42.2988 33.7 42.3988 33.6C42.4988 33.5 42.5988 33.4999 42.6988 33.3999C41.8988 32.3999 41.3988 31.2 40.9988 30C40.7988 29.4 40.6988 28.7 40.4988 28C40.3988 27.7 40.3988 27.3 40.2988 27L40.1988 26.5C40.1988 26.4 40.0988 26.2 40.0988 26.1C39.8988 25.5 39.5988 24.8999 39.2988 24.3999C38.9988 23.7999 38.6988 23.2 38.3988 22.6C38.0988 22 37.7988 21.4 37.6988 20.7C37.5988 20.4 37.5988 20 37.6988 19.6C37.7988 19.3 37.8988 19.0999 38.0988 18.8999C37.1988 17.8999 36.1988 17.0999 35.1988 16.2999C34.6988 15.8999 34.0988 15.6 33.5988 15.2L33.7988 15.2999C33.6988 15.1999 33.4988 15.1 33.3988 15C32.8988 14.7 32.4988 14.3 31.9988 14C31.5988 13.7 31.0988 13.2999 30.6988 12.8999C30.4988 12.7999 30.3988 12.6 30.1988 12.5C30.0988 12.4 29.8988 12.2 29.7988 12.1V12.2C29.7988 12.4 29.7988 12.6 29.7988 12.7C29.7988 12.8 29.7988 12.7999 29.7988 12.8999C29.7988 12.9999 29.7988 13.1999 29.8988 13.2999C29.8988 13.4999 29.9988 13.6999 30.0988 13.7999L29.9988 13.8999L29.8988 14C29.7988 13.8 29.6988 13.5999 29.5988 13.3999C29.4988 13.1999 29.4988 13 29.4988 12.7V12.6C28.9988 12.3 28.4988 12 27.9988 11.6C26.8988 10.9 25.8988 9.99998 24.9988 9.09998C24.8988 9.29998 24.8988 9.39998 24.7988 9.59998C24.6988 9.89998 24.5988 10.2 24.4988 10.5C24.3988 10.8 24.2988 11.0999 24.1988 11.3999C24.0988 11.6999 24.0988 11.9999 23.9988 12.2999C24.0988 12.4999 24.1988 12.5999 24.1988 12.7999L23.9988 12.8999L23.7988 13C23.6988 12.8 23.5988 12.6 23.3988 12.5C23.2988 12.5 23.2988 12.3999 23.1988 12.3999C22.9988 12.9999 22.7988 13.6999 22.5988 14.2999C22.2988 14.9999 21.9988 15.8 21.5988 16.5C21.1988 17.2 20.6988 17.9 20.2988 18.5C19.8988 19 19.4988 19.3999 19.0988 19.8999C19.1988 19.8999 19.2988 19.8999 19.3988 19.8999L19.4988 20.1L19.6988 19.8999C19.9988 19.8999 20.1988 19.8 20.4988 19.6L20.5988 19.7999L20.6988 20C20.3988 20.2 20.0988 20.2999 19.7988 20.3999C19.6988 20.6999 19.4988 20.9999 19.3988 21.2999C19.1988 21.6999 18.9988 22.1 18.7988 22.5C18.3988 23.3 18.0988 24.1 17.8988 25C17.6988 25.9 17.3988 26.7 17.1988 27.6C16.9988 28.3 16.8988 28.9999 16.7988 29.7999C16.8988 29.7999 16.9988 29.7999 17.1988 29.7999C17.3988 29.7999 17.4988 29.8999 17.6988 29.8999C17.6988 29.8999 17.7988 29.9 17.7988 30C17.8988 29.7 18.0988 29.4 18.1988 29L18.5988 29.2C18.4988 29.5 18.2988 29.9 18.1988 30.2C18.1988 30.3 18.1988 30.2999 18.1988 30.3999V30.6C17.7988 32.1 17.4988 33.6 17.3988 35.1C17.1988 36.5 17.0988 37.8999 16.9988 39.2999L17.4988 39.1V38.6H17.8988V39.6V40.1C17.8988 40.3 17.8988 40.5 17.7988 40.6C17.6988 41.2 17.5988 41.8 17.4988 42.5C17.4988 42.5 17.5988 42.5 17.5988 42.6C17.6988 42.6 17.7988 42.7 17.8988 42.7C18.0988 42.7 18.1988 42.7 18.3988 42.7C18.3988 42.6 18.4988 42.3999 18.4988 42.2999L19.0988 42.3999C19.0988 42.6999 18.9988 42.9 18.8988 43.2C18.6988 43.2 18.4988 43.5 18.2988 43.6Z" fill="#5A3714"/>
<path d="M38.8992 38.2999C38.8992 38.4999 38.7992 38.5999 38.7992 38.7999C38.8992 38.6999 39.0992 38.7 39.1992 38.6C39.3992 38.5 39.5992 38.3 39.6992 38.1C39.7992 37.9 39.8992 37.6999 39.8992 37.3999C39.8992 37.1999 39.8992 36.9999 39.8992 36.7999C39.5992 36.5999 39.1992 36.5 38.8992 36.5C38.4992 36.4 38.0992 36.4 37.5992 36.5H37.2992C35.7992 36.7 34.1992 36.7 32.6992 36.6C32.3992 36.6 32.0992 36.6 31.7992 36.5C31.2992 36.5 30.7992 36.3999 30.2992 36.3999C29.5992 36.2999 28.7992 36.2 28.0992 36C27.9992 36 27.8992 35.8 27.9992 35.7C28.2992 35.8 28.4992 35.7999 28.7992 35.8999C29.2992 35.0999 30.0992 33.7999 30.4992 33.8999C30.8992 33.9999 31.4992 35.2 31.7992 36.2C31.7992 36.1 31.8992 36.1 31.8992 36C32.3992 35.3 32.7992 34.7999 33.0992 34.7999C33.4992 34.7999 34.0992 35.6999 34.3992 36.2999C34.6992 36.2999 34.8992 36.2999 35.1992 36.2999C35.8992 36.2999 36.4992 36.2 37.1992 36.1C37.1992 36.1 37.2992 36.1 37.2992 36C37.3992 35.9 37.4992 35.8999 37.5992 35.7999C37.9992 35.5999 38.3992 35.5 38.8992 35.5C39.0992 35.5 39.3992 35.5 39.5992 35.5C39.4992 35.4 39.4992 35.3 39.3992 35.1C39.2992 34.9 39.2992 34.5999 39.2992 34.2999V34.1H39.4992C39.6992 34.1 39.7992 33.9999 39.9992 33.8999C40.0992 33.7999 40.2992 33.5999 40.2992 33.3999C40.4992 33.0999 40.4992 32.6999 40.4992 32.2999C40.2992 32.2999 40.0992 32.2 39.7992 32.1C39.6992 32 39.4992 31.8999 39.4992 31.7999C39.3992 31.6999 39.3992 31.4999 39.2992 31.3999C39.1992 30.9999 39.0992 30.6 39.0992 30.1C38.6992 30.5 38.0992 30.7 37.4992 30.7C36.4992 30.6 35.5992 29.7999 35.5992 28.7999C35.4992 27.6999 36.2992 26.7 37.2992 26.5L35.3992 26.3999V25.7999L38.1992 25.8999C38.1992 25.6999 38.1992 25.4999 38.0992 25.2999C37.9992 24.9999 37.8992 24.6999 37.7992 24.3999C37.5992 24.0999 37.4992 23.8 37.2992 23.6C37.0992 23.3 36.9992 23.0999 36.7992 22.7999C36.6992 22.6999 36.4992 22.7 36.3992 22.7C36.2992 22.7 36.1992 22.7 36.1992 22.7C36.0992 22.7 35.9992 22.7 35.9992 22.7C35.9992 22.8 35.8992 23 35.8992 23.1C35.7992 23.6 35.6992 24.1 35.6992 24.7V24.8999H35.4992C35.2992 24.8999 35.1992 24.8999 35.0992 24.7999C34.9992 24.7999 34.8992 24.7 34.7992 24.6C34.6992 24.5 34.5992 24.4999 34.4992 24.3999C34.4992 24.4999 34.4992 24.6999 34.4992 24.7999C34.4992 25.0999 34.4992 25.4 34.5992 25.7C34.6992 26.3 34.6992 26.8999 34.8992 27.3999L34.9992 27.7999L34.5992 27.7C33.9992 27.5 33.4992 27.3 32.9992 27C32.4992 26.7 31.9992 26.3 31.5992 26C30.7992 25.3 30.1992 24.5 29.5992 23.7C29.5992 23.8 29.4992 23.7999 29.4992 23.8999C29.3992 24.0999 29.2992 24.2999 29.2992 24.3999L29.1992 24.7L28.8992 24.6C28.5992 24.4 28.2992 24.0999 28.0992 23.8999C27.8992 23.5999 27.6992 23.3 27.5992 23.1C27.3992 22.8 27.2992 22.5999 27.0992 22.3999C26.8992 22.1999 26.6992 22.2 26.4992 22.1C26.4992 22.3 26.5992 22.5 26.6992 22.7C26.8992 23.1 27.0992 23.4999 27.2992 23.7999L27.4992 24L27.1992 24.1C26.6992 24.2 26.0992 24.2 25.5992 24C25.1992 23.8 24.6992 23.6 24.3992 23.2C24.1992 23.5 24.0992 23.8999 24.1992 24.2999C24.2992 24.6999 24.6992 25.0999 25.0992 25.2999L25.2992 25.3999L25.1992 25.6L24.9992 26.1L24.7992 26.6C24.6992 27 24.5992 27.3 24.4992 27.7C24.3992 28.1 24.3992 28.3999 24.3992 28.7999C24.3992 28.9999 24.3992 29.1999 24.4992 29.2999C24.4992 29.4999 24.5992 29.6999 24.6992 29.7999L24.7992 30L24.5992 30.1C24.3992 30.2 24.2992 30.2 24.0992 30.2C23.9992 30.2 23.7992 30.2 23.6992 30.2C23.4992 30.2 23.3992 30.1 23.1992 30.1V30.2C23.1992 30.4 23.2992 30.5 23.2992 30.7C23.3992 31 23.4992 31.3 23.5992 31.6C23.6992 31.9 23.8992 32.1999 24.0992 32.3999C24.2992 32.5999 24.4992 32.9 24.6992 33.1L24.8992 33.2L24.7992 33.3999C24.6992 33.5999 24.4992 33.6999 24.2992 33.7999C24.1992 33.7999 24.0992 33.8999 23.9992 33.8999H23.8992C23.8992 33.9999 23.9992 34.1999 24.0992 34.2999C24.1992 34.4999 24.2992 34.6999 24.4992 34.8999L24.5992 35.1L24.4992 35.2L23.3992 36.2999C23.5992 36.4999 23.7992 36.5999 24.0992 36.7999C24.3992 36.9999 24.6992 37.1 25.0992 37.2C25.3992 37.3 25.7992 37.4 26.0992 37.5C26.3992 37.6 26.7992 37.6 27.0992 37.6H27.2992L27.1992 37.7999C27.0992 37.9999 27.0992 38.1999 26.9992 38.3999C27.0992 38.3999 27.0992 38.5 27.1992 38.5C27.2992 38.5 27.3992 38.6 27.4992 38.6C27.6992 38.7 27.9992 38.6999 28.1992 38.7999C28.6992 38.8999 29.1992 39 29.6992 39.1C30.6992 39.3 31.6992 39.2999 32.6992 39.2999C33.6992 39.2999 34.6992 39.2 35.6992 39C36.6992 38.8 37.6992 38.6 38.5992 38.2L38.8992 38.1V38.2999ZM26.0992 28.7C26.0992 27.8 26.6992 27 27.4992 26.7H25.7992V26.1L30.4992 26V26.6H28.7992C29.6992 26.9 30.2992 27.7 30.2992 28.6C30.2992 29.8 29.3992 30.7 28.1992 30.7C26.9992 30.8 26.0992 29.8 26.0992 28.7Z" fill="#E8C5AA"/>
<path d="M31.4986 50.2C31.5986 50.5 31.6986 50.6999 31.7986 50.8999C31.9986 51.0999 32.1986 51.2 32.3986 51.3C32.5986 51.3 32.7986 51.3 32.8986 51.3C32.8986 51.2 32.7986 51.1999 32.7986 51.0999C32.6986 50.9999 32.5986 50.8 32.5986 50.7C32.4986 50.6 32.4986 50.4 32.4986 50.2C32.4986 50 32.4986 49.9 32.5986 49.7C32.2986 49.1 31.7986 48.1 31.5986 47.7C31.0986 47.9 30.6986 48.1 30.1986 48.3L29.7986 48.5V48.0999C29.7986 47.6999 29.6986 47.2 29.5986 46.8C29.5986 46.7 29.5986 46.6999 29.5986 46.5999C29.2986 46.6999 29.0986 46.8 28.7986 47C28.5986 47.1 28.4986 47.2 28.2986 47.3C28.0986 47.4 27.9986 47.4999 27.8986 47.5999L27.6986 47.8L27.4986 47.5999C26.8986 46.8999 26.1986 46.4 25.2986 46.1C25.0986 46 24.7986 45.9999 24.5986 45.8999C26.6986 47.7999 29.9986 51.6 32.4986 54.8L32.5986 51.7H32.4986C32.1986 51.6 31.8986 51.5 31.6986 51.2C31.4986 51 31.3986 50.6999 31.3986 50.3999L31.2986 50.5C31.1986 50.6 30.9986 50.7 30.7986 50.7C30.5986 50.7 30.4986 50.7 30.2986 50.7C30.0986 50.7 29.9986 50.5999 29.7986 50.5999L29.4986 50.5L29.6986 50.3C29.7986 50.2 29.9986 50 30.0986 49.8C30.1986 49.6 30.2986 49.5 30.3986 49.3C30.5986 49.4 30.5986 49.5 30.5986 49.7C30.5986 49.8 30.4986 49.9 30.3986 50C30.2986 50.1 30.2986 50.2 30.1986 50.3H30.2986C30.3986 50.3 30.5986 50.3 30.6986 50.3C30.8986 50.3 31.0986 50.1 31.2986 50C31.2986 49.8 31.2986 49.7 31.2986 49.5C31.4986 49.5 31.5986 49.6 31.5986 49.8C31.5986 49.9 31.5986 50.1 31.6986 50.2C31.4986 50.1 31.4986 50.1 31.4986 50.2C31.4986 50.1 31.4986 50.1 31.4986 50.2Z" fill="#5A3714"/>
<path d="M16.2988 47.0999V47.3L16.4988 47.3999C17.7988 48.4999 24.8988 53.8999 25.6988 53.8999C26.1988 53.8999 26.6988 53.5 27.0988 53.3C27.5988 53 27.8988 52.7999 28.0988 53.0999C28.1988 53.1999 28.1988 53.5 28.0988 54.2C27.9988 54.7 27.8988 55.8999 28.0988 56.0999C28.1988 56.1999 28.4988 56.2999 28.8988 56.3999C30.4988 56.9999 33.8988 58.3 35.8988 61.3L36.2988 60.0999C35.4988 58.9999 27.3988 48.6 23.8988 45.7C23.6988 45.7 23.5988 45.7 23.3988 45.7C23.2988 45.7 23.1988 45.7 23.0988 45.7H22.6988C21.6988 45.8 20.6988 45.8 19.7988 45.6C18.9988 45.4 18.2988 45.1999 17.5988 44.7999C16.5988 45.7999 16.3988 46.6999 16.2988 47.0999Z" fill="#213521"/>
<path d="M34.6992 68.5999L36.6992 60.2L36.7992 60C38.3992 52.6 39.1992 48.0999 39.3992 46.5999H39.4992C39.8992 46.5999 40.3992 46.5999 40.7992 46.3999C40.8992 46.3999 40.8992 46.4 40.9992 46.3C41.3992 46.5 42.0992 46.9999 42.3992 47.3999C42.4992 47.5999 42.5992 48.3 42.4992 49C42.4992 50.2 42.1992 51.7999 41.9992 52.0999C41.2992 52.1999 39.9992 52.3999 39.8992 52.8999C39.7992 53.1999 40.0992 53.3999 40.2992 53.5999C40.6992 53.8999 41.3992 54.2999 41.2992 55.0999C40.9992 57.6999 34.6992 68.5999 34.6992 68.5999Z" fill="#213521"/>
<path d="M40.7992 36.8999C40.9992 36.9999 41.1992 37.1999 41.2992 37.2999C41.3992 37.3999 41.5992 37.6 41.6992 37.7C41.8992 37.9 42.0992 38.0999 42.1992 38.2999C42.4992 38.5999 42.7992 38.8999 42.9992 39.2999C43.2992 39.5999 43.4992 39.9999 43.7992 40.3999L44.0992 40.8999L44.2992 41.2L44.3992 41.2999L44.4992 41.3999C44.6992 41.6999 44.9992 41.9 45.3992 42.1C45.7992 42.3 46.0992 42.4 46.4992 42.5C47.2992 42.7 48.0992 42.7999 48.8992 42.7999C49.6992 42.6999 50.4992 42.5 51.0992 42C51.0992 42 51.1992 41.8999 51.1992 41.7999C51.1992 41.6999 51.2992 41.6 51.2992 41.5C51.3992 41.3 51.3992 41.0999 51.3992 40.8999C51.4992 40.4999 51.4992 40.1 51.5992 39.7L51.6992 39.1V38.7999C51.6992 38.6999 51.6992 38.7 51.6992 38.6C51.6992 38.5 51.5992 38.2999 51.4992 38.2999C51.3992 38.2999 51.3992 38.2 51.2992 38.2C51.1992 38.2 51.0992 38.1 50.9992 38.1C50.1992 37.9 49.3992 37.7999 48.4992 37.7999H48.2992C48.1992 37.7999 48.1992 37.7999 48.1992 37.7999C48.0992 37.7999 48.0992 37.7999 47.9992 37.8999C47.8992 37.9999 47.7992 38.1 47.6992 38.2C47.6992 38.3 47.6992 38.2999 47.5992 38.3999V38.7C47.5992 38.9 47.4992 39.0999 47.4992 39.2999C47.4992 39.4999 47.3992 39.6999 47.3992 39.8999C47.2992 40.0999 47.2992 40.3 47.1992 40.6C47.0992 40.7 46.9992 40.8999 46.7992 40.8999C46.6992 40.9999 46.4992 41 46.3992 41C46.0992 41 45.8992 41 45.5992 41C45.3992 40.9 45.0992 40.9 44.8992 40.7C44.7992 40.6 44.6992 40.6 44.5992 40.5C44.4992 40.4 44.3992 40.3 44.3992 40.2C44.1992 39.9 43.8992 39.5 43.6992 39.2C43.2992 38.7 42.8992 38.2 42.3992 37.7C42.2992 37.6 42.1992 37.4999 41.9992 37.3999C41.8992 37.2999 41.8992 37.3 41.7992 37.2C41.4992 37 41.1992 36.7 40.8992 36.6C40.5992 36.4 40.2992 36.3 39.8992 36.2C39.4992 36.1 39.1992 36 38.7992 36C38.5992 36 38.3992 36 38.1992 36.1C38.3992 36.1 38.5992 36.1 38.8992 36.1C39.3992 36.2 39.7992 36.3 40.1992 36.5C40.3992 36.6 40.5992 36.6999 40.7992 36.8999Z" fill="#CC6328"/>
<path d="M49.8988 33.2999C49.8988 33.3999 49.8988 33.6 49.8988 33.7C49.4988 33.4 49.2988 32.8999 49.2988 32.3999C49.2988 31.4999 49.9988 30.7 50.9988 30.7C51.0988 30.7 51.1988 30.7 51.1988 30.7C50.4988 31.3 49.8988 32.2999 49.8988 33.2999ZM53.6988 32.5C53.6988 31 52.4988 29.7999 50.9988 29.7999C49.4988 29.7999 48.2988 31 48.2988 32.5C48.2988 34 49.4988 35.2 50.9988 35.2C52.4988 35.2 53.6988 34 53.6988 32.5Z" fill="white"/>
<path d="M57.199 19.8999C55.099 19.8999 53.499 21.6 53.499 23.6C53.499 25.7 55.199 27.2999 57.199 27.2999C59.299 27.2999 60.899 25.6 60.899 23.6C60.999 21.6 59.299 19.8999 57.199 19.8999ZM55.199 24.5C54.599 24.2 54.399 23.3 54.699 22.5C54.999 21.8 55.699 21.2999 56.399 21.2999C56.599 21.2999 56.699 21.2999 56.899 21.3999C55.699 22.0999 55.099 23.1 55.199 24.5Z" fill="white"/>
<path d="M59.499 11.1C59.499 8.09998 56.999 5.69995 53.999 5.69995C50.999 5.69995 48.499 8.19995 48.499 11.2C48.499 14.2 50.999 16.7 53.999 16.7C57.099 16.6 59.499 14.1 59.499 11.1ZM50.899 12.8999C49.999 12.2999 49.399 10.6 50.199 9C50.799 8 51.899 7.19995 53.099 7.19995C53.399 7.19995 53.699 7.19993 53.999 7.29993C51.599 8.49993 50.599 10.2999 50.899 12.8999Z" fill="white"/>
<path d="M31.0984 60.5L27.8984 60.8C25.8984 61 23.7984 61 21.7984 60.8L19.8984 60.5C19.3984 60.5 18.9984 60.5999 18.6984 60.8999C18.4984 61.0999 18.3984 61.3 18.3984 61.5V62.3999C18.3984 62.9999 18.9984 63.6 19.8984 63.7L22.4984 64C23.3984 64.1 24.2984 64.0999 25.1984 64.0999C26.7984 64.0999 28.3984 64 29.9984 63.7L31.2984 63.5C31.7984 63.4 32.1984 62.9999 32.1984 62.5999V61.2C32.1984 61 32.0984 60.8 31.9984 60.7C31.7984 60.5 31.4984 60.5 31.0984 60.5ZM31.7984 62.7C31.7984 62.9 31.5984 63.0999 31.2984 63.0999L29.9984 63.3C27.5984 63.7 25.0984 63.7999 22.5984 63.5999L19.9984 63.3C19.3984 63.2 18.8984 62.9 18.8984 62.5V61.5999C18.8984 61.4999 18.9984 61.3 19.0984 61.3C19.2984 61.1 19.4984 61.0999 19.7984 61.0999H19.8984L21.7984 61.3999C23.7984 61.5999 25.8984 61.5999 27.9984 61.3999L31.1984 61.0999C31.3984 61.0999 31.5984 61.1 31.6984 61.2C31.6984 61.2 31.7984 61.2999 31.7984 61.3999V62.7V62.7Z" fill="#1A110C"/>
<path d="M27.1984 35.1C27.0984 35.2 27.0984 35.2999 26.9984 35.3999C26.9984 35.4999 26.8984 35.6 26.8984 35.7C26.8984 35.8 26.8984 35.9 26.8984 36H27.0984C27.0984 35.9 27.0984 35.8 27.0984 35.7C27.0984 35.6 27.0984 35.5 27.1984 35.5C27.2984 35.4 27.2984 35.2999 27.3984 35.2999C27.4984 35.1999 27.4984 35.1 27.3984 35C27.3984 35 27.2984 34.9 27.2984 35C27.2984 35 27.2984 35 27.1984 35.1Z" fill="#1A110C"/>
<path d="M37.4992 50.3H37.7992L37.6992 50C37.6992 49.8 37.5992 49.5 37.5992 49.3C37.5992 49.1 37.5992 48.7999 37.5992 48.5999C37.3992 48.5999 37.2992 48.6999 37.2992 48.8999C37.2992 49.0999 37.2992 49.1999 37.2992 49.3999C37.2992 49.5999 37.2992 49.6999 37.2992 49.8999C37.1992 49.8999 37.1992 49.8999 37.0992 49.8999C36.9992 49.8999 36.8992 49.9 36.7992 50L36.6992 50.0999C36.7992 50.1999 36.8992 50.3 37.0992 50.3C37.1992 50.3 37.3992 50.3 37.4992 50.3Z" fill="#1A110C"/>
<path d="M52.2988 38.2999C52.1988 37.9999 51.9988 37.8 51.7988 37.6C51.6988 37.5 51.5988 37.4999 51.3988 37.3999C51.2988 37.3999 51.1988 37.2999 51.0988 37.2999C50.1988 37.0999 49.3988 37 48.4988 37H48.2988C48.1988 37 48.1988 37 48.0988 37C47.9988 37 47.7988 37.1 47.6988 37.1C47.3988 37.2 47.1988 37.4 47.0988 37.7C46.9988 37.8 46.9988 38 46.9988 38.1V38.3999C46.9988 38.5999 46.8988 38.8 46.8988 39C46.8988 39.2 46.7988 39.4 46.7988 39.6C46.7988 39.8 46.6988 40 46.5988 40.1C46.5988 40.2 46.5988 40.2 46.4988 40.2C46.3988 40.2 46.3988 40.2999 46.2988 40.2999C46.0988 40.2999 45.9988 40.2999 45.7988 40.2999C45.5988 40.2999 45.3988 40.2 45.2988 40.1C45.1988 40.1 45.1988 39.9999 45.0988 39.8999C44.9988 39.7999 44.9988 39.8 44.8988 39.7C44.5988 39.4 44.3988 39 44.0988 38.7L43.6988 38.2C43.5988 38 43.3988 37.9 43.2988 37.7C43.1988 37.5 42.9988 37.4 42.7988 37.2C42.6988 37.1 42.5988 36.9999 42.4988 36.8999C42.5988 36.4999 42.5988 36.1 42.5988 35.7C42.5988 35.4 42.5988 35.0999 42.4988 34.7999C42.4988 34.6999 42.3988 34.4999 42.3988 34.3999C42.4988 34.3999 42.6988 34.2999 42.7988 34.2999C42.9988 34.1999 43.0988 34.1 43.1988 34C43.2988 33.9 43.3988 33.7 43.4988 33.5L43.5988 33.2999L43.4988 33.2C42.6988 32.2 42.1988 31.0999 41.7988 29.7999C41.5988 29.1999 41.4988 28.5999 41.2988 27.8999C41.1988 27.5999 41.1988 27.2999 41.0988 26.8999L40.9988 26.3999C40.9988 26.1999 40.8988 25.9999 40.8988 25.8999C40.6988 25.1999 40.3988 24.6 40.0988 24.1C39.7988 23.5 39.4988 22.8999 39.1988 22.3999C38.8988 21.7999 38.6988 21.2 38.4988 20.6C38.3988 20.3 38.3988 19.9999 38.4988 19.7999C38.5988 19.5999 38.6988 19.4 38.8988 19.2L39.1988 19L38.8988 18.7C37.8988 17.6 36.7988 16.5999 35.5988 15.7999C35.0988 15.4999 34.5988 15.1999 34.1988 14.7999C33.9988 14.6999 33.8988 14.6 33.6988 14.5C33.1988 14.2 32.7988 13.9 32.3988 13.5C31.9988 13.2 31.4988 12.8 31.0988 12.5C30.6988 12.1 30.2988 11.7999 29.8988 11.3999L29.5988 11L29.4988 11.5C29.4988 11.7 29.3988 11.8 29.3988 12C28.9988 11.8 28.6988 11.4999 28.2988 11.2999C27.0988 10.4999 25.9988 9.6 25.0988 8.5L24.7988 8.19995L24.5988 8.59998C24.3988 8.89998 24.2988 9.2 24.1988 9.5C24.0988 9.8 23.9988 10.1 23.8988 10.5C23.7988 10.8 23.6988 11.2 23.6988 11.5C23.6988 11.6 23.6988 11.7999 23.5988 11.8999C23.4988 11.7999 23.3988 11.7 23.2988 11.6L22.9988 11.5L22.8988 11.7999C22.6988 12.4999 22.3988 13.3 22.0988 14C21.7988 14.7 21.4988 15.4 21.0988 16.1C20.6988 16.8 20.2988 17.4 19.7988 18C19.2988 18.6 18.7988 19.1999 18.2988 19.7999L17.8988 20.2L18.3988 20.2999C18.5988 20.2999 18.7988 20.2999 18.9988 20.2999C18.8988 20.4999 18.7988 20.5999 18.6988 20.7999C18.4988 21.1999 18.2988 21.6 18.0988 22C17.6988 22.8 17.3988 23.7 17.0988 24.6C16.7988 25.5 16.5988 26.3 16.3988 27.2C16.1988 28.1 15.9988 28.9999 15.8988 29.7999L15.7988 30.2999L16.2988 30.2C16.3988 30.2 16.4988 30.1 16.5988 30.1C16.6988 30.1 16.7988 30.1 16.8988 30.1C16.9988 30.1 17.0988 30.1 17.0988 30.2C17.0988 30.2 17.0988 30.2 17.1988 30.2C16.7988 31.7 16.5988 33.1 16.3988 34.6C16.2988 35.4 16.1988 36.1999 16.1988 36.8999C16.0988 37.6999 16.0988 38.5 16.0988 39.2V39.7L16.4988 39.5L17.1988 39.2999C17.1988 39.5999 17.0988 39.9 17.0988 40.2C16.9988 40.9 16.7988 41.5 16.6988 42.2L16.5988 42.3999L16.6988 42.5C16.7988 42.6 16.9988 42.6999 17.0988 42.7999C17.1988 42.8999 17.3988 42.9 17.4988 43C17.5988 43 17.5988 43 17.6988 43L16.6988 43.8999L16.3988 44.2L16.6988 44.3999C16.6988 44.3999 16.7988 44.4 16.7988 44.5C15.9988 45.4 15.6988 46.3999 15.5988 46.8999C15.4988 46.9999 10.3988 51.6 7.39883 57.7L7.29883 58L7.89883 58.3L7.99883 58C10.6988 52.6 15.0988 48.3999 15.8988 47.5999C17.3988 48.9999 24.4988 54.3 25.4988 54.2C26.0988 54.1 26.6988 53.8 27.0988 53.5C27.1988 53.4 27.3988 53.3 27.4988 53.3C27.4988 53.5 27.4988 53.7 27.3988 54C27.2988 55.1 27.1988 55.9 27.4988 56.2C27.5988 56.3 27.8988 56.3999 28.3988 56.5999C30.0988 57.1999 33.4988 58.6 35.4988 61.7L35.5988 61.8999C35.0988 64.2999 34.4988 66.9 33.8988 69.8L33.6988 70.8L34.2988 69.8999C35.4988 68.2999 41.4988 56.6 41.4988 55C41.4988 54 40.7988 53.3999 40.2988 53.0999C40.1988 52.9999 40.0988 52.9999 39.9988 52.8999C40.0988 52.6999 40.9988 52.4999 41.7988 52.3999H41.8988H41.9988C42.2988 52.0999 42.5988 50.8 42.5988 49.5C43.8988 51.2 47.4988 56.3 48.4988 60.7L49.0988 60.5999C47.8988 55.0999 42.8988 48.8 42.6988 48.5C42.6988 47.8 42.5988 47.2 42.4988 47C42.1988 46.6 41.6988 46.1999 41.1988 45.8999C41.3988 45.7999 41.5988 45.7 41.6988 45.6L41.9988 45.2999L41.5988 45.1C41.4988 45 41.2988 44.8999 41.1988 44.7999C41.0988 44.6999 40.8988 44.6 40.7988 44.5C40.5988 44.3 40.4988 44.2 40.3988 44C40.5988 43.8 40.7988 43.7 40.9988 43.5C41.0988 43.4 41.1988 43.2 41.2988 43.1C41.3988 43 41.4988 42.8 41.5988 42.6L41.7988 42.2999L41.4988 42.1C41.4988 42.1 41.3988 41.9999 41.2988 41.8999C41.1988 41.7999 41.1988 41.8 41.0988 41.7C40.9988 41.6 40.8988 41.4 40.7988 41.2C40.7988 41.2 40.7988 41.1 40.6988 41.1C40.7988 41.1 40.8988 41.1 40.9988 41.1C41.0988 41.1 41.2988 41.1 41.3988 41.1C41.4988 41.1 41.5988 41.1 41.7988 41L42.1988 40.7999L41.8988 40.5C41.7988 40.3 41.6988 40.0999 41.6988 39.8999C41.6988 39.5999 41.6988 39.4 41.6988 39.1C41.6988 38.9 41.6988 38.8 41.7988 38.6C41.9988 38.8 42.1988 38.9999 42.2988 39.2999C42.5988 39.5999 42.7988 39.9999 42.9988 40.2999L43.2988 40.7999C43.3988 40.9999 43.4988 41.1999 43.6988 41.3999C43.9988 41.7999 44.3988 42 44.7988 42.2C45.1988 42.4 45.5988 42.6 45.9988 42.7C46.7988 42.9 47.6988 43.1 48.5988 43C49.4988 42.9 50.3988 42.7 51.0988 42.1C51.1988 42 51.2988 41.8 51.3988 41.7C51.4988 41.6 51.4988 41.4999 51.4988 41.3999C51.5988 41.1999 51.5988 41 51.6988 40.7C51.7988 40.3 51.7988 39.7999 51.8988 39.3999L51.9988 38.7999V38.5C52.3988 38.6 52.3988 38.4999 52.2988 38.2999ZM51.1988 41.7C51.1988 41.8 51.0988 41.7999 51.0988 41.8999C50.4988 42.3999 49.6988 42.6 48.8988 42.7C48.0988 42.8 47.2988 42.6999 46.4988 42.3999C46.0988 42.2999 45.6988 42.1 45.3988 42C44.9988 41.8 44.6988 41.5999 44.4988 41.2999L44.3988 41.2L44.2988 41.1L44.0988 40.7999L43.7988 40.2999C43.5988 39.8999 43.2988 39.6 42.9988 39.2C42.6988 38.9 42.4988 38.5 42.1988 38.2C41.9988 38 41.7988 37.8 41.6988 37.6C41.5988 37.5 41.3988 37.3 41.2988 37.2C41.0988 37.1 40.9988 36.8999 40.7988 36.7999C40.5988 36.6999 40.3988 36.5999 40.1988 36.3999C39.7988 36.1999 39.3988 36 38.8988 36C38.6988 36 38.4988 36 38.1988 36C38.3988 36 38.5988 35.8999 38.7988 35.8999C39.1988 35.8999 39.4988 36 39.8988 36.1C40.1988 36.2 40.5988 36.3 40.8988 36.5C41.1988 36.7 41.4988 36.9 41.7988 37.1C41.8988 37.2 41.8988 37.1999 41.9988 37.2999C42.0988 37.3999 42.1988 37.5 42.3988 37.6C42.8988 38.1 43.2988 38.5 43.6988 39.1C43.9988 39.4 44.1988 39.8 44.3988 40.1C44.4988 40.2 44.4988 40.2999 44.5988 40.3999C44.6988 40.4999 44.7988 40.6 44.8988 40.6C45.0988 40.7 45.2988 40.7999 45.5988 40.8999C45.7988 40.9999 46.0988 40.9999 46.3988 40.8999C46.4988 40.8999 46.6988 40.7999 46.7988 40.7999C46.8988 40.6999 47.0988 40.6 47.1988 40.5C47.2988 40.2 47.3988 39.9999 47.3988 39.7999C47.4988 39.5999 47.4988 39.4 47.4988 39.2C47.4988 39 47.5988 38.8 47.5988 38.6V38.2999C47.5988 38.1999 47.5988 38.2 47.6988 38.1C47.7988 38 47.8988 37.8999 47.9988 37.7999C48.0988 37.7999 48.0988 37.7 48.1988 37.7H48.2988H48.4988C49.2988 37.7 50.1988 37.8 50.9988 38C51.0988 38 51.1988 38.1 51.2988 38.1C51.3988 38.1 51.3988 38.2 51.4988 38.2C51.5988 38.3 51.6988 38.4 51.6988 38.5C51.6988 38.6 51.6988 38.6 51.6988 38.7V39L51.5988 39.6C51.5988 40 51.4988 40.3999 51.3988 40.7999C51.3988 40.9999 51.2988 41.1999 51.2988 41.3999C51.2988 41.5999 51.2988 41.7 51.1988 41.7ZM39.7988 37.3999C39.7988 37.5999 39.6988 37.9 39.5988 38.1C39.4988 38.3 39.2988 38.5 39.0988 38.6C38.9988 38.7 38.8988 38.6999 38.6988 38.7999C38.7988 38.6999 38.7988 38.4999 38.7988 38.2999V38L38.4988 38.1C37.5988 38.4 36.5988 38.6999 35.5988 38.8999C34.5988 39.0999 33.5988 39.2 32.5988 39.2C31.5988 39.2 30.5988 39.1 29.5988 39C29.0988 38.9 28.5988 38.8 28.0988 38.7C27.8988 38.6 27.5988 38.6 27.3988 38.5C27.2988 38.5 27.1988 38.3999 27.0988 38.3999C26.9988 38.3999 26.9988 38.2999 26.8988 38.2999C26.9988 38.0999 27.0988 37.9 27.0988 37.7L27.1988 37.5H26.9988C26.6988 37.5 26.2988 37.3999 25.9988 37.3999C25.6988 37.2999 25.2988 37.2 24.9988 37.1C24.6988 37 24.2988 36.8 23.9988 36.7C23.7988 36.6 23.4988 36.4 23.2988 36.2L24.3988 35.1L24.4988 35L24.3988 34.7999C24.2988 34.5999 24.0988 34.4 23.9988 34.2C23.8988 34.1 23.8988 33.8999 23.7988 33.7999H23.8988C23.9988 33.7999 24.0988 33.7 24.1988 33.7C24.3988 33.6 24.4988 33.4999 24.6988 33.2999L24.7988 33.1L24.5988 33C24.3988 32.8 24.1988 32.5999 23.9988 32.2999C23.7988 31.9999 23.6988 31.8 23.4988 31.5C23.3988 31.2 23.2988 30.9 23.1988 30.6C23.1988 30.4 23.0988 30.3 23.0988 30.1V30C23.2988 30 23.3988 30.1 23.5988 30.1C23.6988 30.1 23.8988 30.1 23.9988 30.1C24.1988 30.1 24.2988 30.1 24.4988 30L24.6988 29.8999L24.5988 29.7C24.4988 29.6 24.4988 29.4 24.3988 29.2C24.3988 29 24.2988 28.8 24.2988 28.7C24.2988 28.3 24.2988 28 24.3988 27.6C24.4988 27.2 24.5988 26.9 24.6988 26.5L24.8988 26L25.0988 25.5L25.1988 25.2999L24.9988 25.2C24.5988 25 24.1988 24.7 24.0988 24.2C23.9988 23.8 24.0988 23.4 24.2988 23.1C24.5988 23.5 25.0988 23.6999 25.4988 23.8999C25.9988 24.0999 26.5988 24.1 27.0988 24L27.3988 23.8999L27.1988 23.7C26.8988 23.4 26.6988 23 26.5988 22.6C26.4988 22.4 26.4988 22.2 26.3988 22C26.5988 22 26.7988 22.0999 26.9988 22.2999C27.1988 22.4999 27.3988 22.8 27.4988 23C27.6988 23.3 27.7988 23.5999 27.9988 23.7999C28.1988 24.0999 28.3988 24.3 28.7988 24.5L29.0988 24.6L29.1988 24.2999C29.1988 24.0999 29.2988 23.9999 29.3988 23.7999C29.3988 23.6999 29.4988 23.7 29.4988 23.6C30.0988 24.5 30.6988 25.1999 31.4988 25.8999C31.8988 26.2999 32.3988 26.5999 32.8988 26.8999C33.3988 27.1999 33.8988 27.5 34.4988 27.6L34.8988 27.7L34.7988 27.2999C34.5988 26.7999 34.5988 26.2 34.4988 25.6C34.4988 25.3 34.3988 25 34.3988 24.7C34.3988 24.6 34.3988 24.3999 34.3988 24.2999C34.4988 24.3999 34.5988 24.4 34.6988 24.5C34.7988 24.6 34.8988 24.6 34.9988 24.7C35.0988 24.7 35.2988 24.7999 35.3988 24.7999H35.5988V24.6C35.6988 24.1 35.6988 23.6 35.7988 23C35.7988 22.9 35.8988 22.7 35.8988 22.6C35.9988 22.6 35.9988 22.6 36.0988 22.6C36.1988 22.6 36.2988 22.6 36.2988 22.6C36.4988 22.6 36.5988 22.7 36.6988 22.7C36.8988 22.9 36.9988 23.2 37.1988 23.5C37.3988 23.8 37.4988 24.0999 37.6988 24.2999C37.8988 24.5999 37.9988 24.9 37.9988 25.2C37.9988 25.4 38.0988 25.5999 38.0988 25.7999L35.2988 25.7V26.2999L37.1988 26.3999C36.0988 26.5999 35.3988 27.5 35.4988 28.7C35.5988 29.7 36.3988 30.5 37.3988 30.6C37.9988 30.6 38.5988 30.4 38.9988 30C38.9988 30.4 39.0988 30.7999 39.1988 31.2999C39.1988 31.3999 39.2988 31.6 39.3988 31.7C39.4988 31.8 39.5988 31.9 39.6988 32C39.8988 32.1 40.0988 32.2 40.3988 32.2C40.3988 32.6 40.2988 32.8999 40.1988 33.2999C40.0988 33.4999 39.9988 33.6999 39.8988 33.7999C39.7988 33.8999 39.5988 34 39.3988 34H39.1988V34.2C39.1988 34.5 39.2988 34.7 39.2988 35C39.2988 35.1 39.3988 35.2999 39.4988 35.3999C39.2988 35.3999 38.9988 35.2999 38.7988 35.3999C38.3988 35.3999 37.8988 35.5 37.4988 35.7C37.3988 35.7 37.2988 35.7999 37.1988 35.8999C37.1988 35.8999 37.0988 35.9 37.0988 36C36.4988 36.1 35.7988 36.1 35.0988 36.2C34.7988 36.2 34.5988 36.2 34.2988 36.2C33.9988 35.6 33.3988 34.7 32.9988 34.7C32.6988 34.7 32.2988 35.1999 31.7988 35.8999C31.7988 35.9999 31.6988 36 31.6988 36.1C31.2988 35.2 30.7988 33.8999 30.3988 33.7999C29.9988 33.6999 29.1988 34.9999 28.6988 35.7999C28.3988 35.6999 28.1988 35.7 27.8988 35.6C27.8988 35.7 27.8988 35.7999 27.9988 35.8999C28.6988 36.0999 29.4988 36.1999 30.1988 36.2999C30.6988 36.3999 31.1988 36.3999 31.6988 36.3999C31.9988 36.3999 32.2988 36.4 32.5988 36.5C34.0988 36.6 35.6988 36.5999 37.1988 36.3999H37.4988C37.8988 36.3999 38.2988 36.3999 38.7988 36.3999C39.1988 36.4999 39.4988 36.6 39.7988 36.7C39.8988 37 39.8988 37.1999 39.7988 37.3999ZM37.5988 30.5C36.5988 30.5 35.7988 29.7 35.7988 28.7C35.7988 27.7 36.5988 26.8999 37.5988 26.8999C38.5988 26.8999 39.3988 27.7 39.3988 28.7C39.3988 29.7 38.5988 30.5 37.5988 30.5ZM33.9988 36.2C33.5988 36.2 33.0988 36.2 32.6988 36.2C32.4988 36.2 32.2988 36.2 31.9988 36.2C31.9988 36.2 31.9988 36.1 32.0988 36.1C32.3988 35.7 32.8988 35 32.9988 35C33.1988 35 33.6988 35.6 33.9988 36.2ZM31.3988 36.1C30.9988 36.1 30.5988 36 30.2988 36C29.8988 36 29.4988 35.8999 29.0988 35.7999C29.5988 34.8999 30.1988 34.1 30.3988 34C30.4988 34.2 30.9988 35.2 31.3988 36.1ZM27.6988 47.8L27.8988 47.5999C27.9988 47.4999 28.1988 47.4 28.2988 47.3C28.4988 47.2 28.5988 47.1 28.7988 47C28.9988 46.9 29.2988 46.6999 29.5988 46.5999C29.5988 46.6999 29.5988 46.7 29.5988 46.8C29.6988 47.2 29.6988 47.6999 29.7988 48.0999V48.5L30.1988 48.3C30.6988 48.1 31.0988 47.9 31.5988 47.7C31.7988 48.1 32.2988 49.1 32.5988 49.7C32.4988 49.9 32.4988 50.1 32.4988 50.2C32.4988 50.4 32.5988 50.5 32.5988 50.7C32.6988 50.8 32.6988 50.9999 32.7988 51.0999C32.7988 51.1999 32.8988 51.2 32.8988 51.3C32.6988 51.3 32.4988 51.4 32.3988 51.3C32.1988 51.3 31.8988 51.0999 31.7988 50.8999C31.5988 50.6999 31.4988 50.4 31.4988 50.2V50.0999C31.4988 49.9999 31.4988 49.8 31.3988 49.7C31.3988 49.5 31.2988 49.3999 31.0988 49.3999C31.0988 49.5999 31.0988 49.6999 31.0988 49.8999C30.8988 50.0999 30.6988 50.2 30.4988 50.2C30.3988 50.2 30.2988 50.2 30.0988 50.2H29.9988C30.0988 50.1 30.0988 49.9999 30.1988 49.8999C30.2988 49.7999 30.2988 49.6999 30.3988 49.5999C30.4988 49.4999 30.3988 49.3 30.1988 49.2C30.0988 49.4 29.9988 49.5 29.8988 49.7C29.7988 49.9 29.6988 50 29.4988 50.2L29.2988 50.3999L29.5988 50.5C29.7988 50.6 29.8988 50.5999 30.0988 50.5999C30.2988 50.5999 30.3988 50.5999 30.5988 50.5999C30.7988 50.5999 30.8988 50.4999 31.0988 50.3999C31.0988 50.3999 31.1988 50.4 31.1988 50.3C31.2988 50.6 31.3988 50.7999 31.4988 51.0999C31.6988 51.3999 31.9988 51.5999 32.2988 51.5999C32.3988 51.5999 32.3988 51.5999 32.3988 51.5999L32.2988 54.7C29.6988 51.5 26.4988 47.6999 24.3988 45.7999C24.5988 45.7999 24.8988 45.9 25.0988 46C25.9988 46.3 26.6988 46.8 27.2988 47.5L27.6988 47.8ZM37.0988 46.3999C37.0988 46.2999 37.1988 46.2 37.1988 46.1C37.6988 46.3 38.2988 46.5 38.8988 46.5C38.6988 47.5 38.2988 49.8 37.5988 53.3C37.3988 52.7 37.0988 52.1 36.7988 51.5C36.3988 50.7 35.9988 50 35.5988 49.2C35.6988 48.9 35.9988 48 36.0988 47.3L36.3988 47.5L36.5988 47.2C36.7988 47.1 36.9988 46.6999 37.0988 46.3999ZM28.7988 56.3999C28.3988 56.2999 28.0988 56.0999 27.9988 56.0999C27.7988 55.8999 27.9988 54.8 27.9988 54.2C28.0988 53.5 28.0988 53.1999 27.9988 53.0999C27.7988 52.7999 27.4988 53 26.9988 53.3C26.5988 53.5 26.0988 53.8999 25.5988 53.8999C24.7988 53.8999 17.6988 48.5999 16.3988 47.3999L16.1988 47.3V47.0999C16.2988 46.6999 16.4988 45.6999 17.2988 44.8999C17.9988 45.2999 18.7988 45.5 19.4988 45.7C20.4988 45.9 21.4988 45.8999 22.3988 45.7999H22.7988C22.8988 45.7999 22.9988 45.7999 23.0988 45.7999C23.2988 45.7999 23.3988 45.7999 23.5988 45.7999C27.0988 48.5999 35.1988 59.1 35.9988 60.2L35.5988 61.3999C33.7988 58.2999 30.3988 56.9999 28.7988 56.3999ZM32.9988 51.5999C33.0988 51.5999 33.2988 51.5 33.3988 51.5L33.5988 51.3999L33.4988 51.2C33.2988 51 33.1988 50.7 33.0988 50.5V50.3999L33.1988 49.8999C34.0988 49.4999 35.0988 49.5999 35.3988 49.5999C35.7988 50.2999 36.2988 51 36.5988 51.8C36.9988 52.6 37.2988 53.4 37.5988 54.2C37.2988 55.8 36.8988 57.5999 36.4988 59.5999C35.8988 58.8999 34.5988 57.0999 32.9988 55.0999V51.5999ZM35.1988 49.0999C34.7988 49.0999 33.8988 48.9999 32.9988 49.3999C32.6988 48.7999 32.1988 47.9 31.9988 47.5C32.3988 47.4 32.7988 47.2 33.1988 47.2C33.6988 47.1 34.2988 47.0999 34.7988 47.0999C35.0988 47.0999 35.2988 47.1 35.4988 47.2C35.4988 47.2 35.5988 47.2 35.5988 47.3C35.5988 47.9 35.2988 48.6999 35.1988 49.0999ZM34.6988 68.5999L36.6988 60.2L36.7988 60C38.3988 52.6 39.1988 48.0999 39.3988 46.5999H39.4988C39.8988 46.5999 40.3988 46.5999 40.7988 46.3999C40.8988 46.3999 40.8988 46.4 40.9988 46.3C41.3988 46.5 42.0988 46.9999 42.3988 47.3999C42.4988 47.5999 42.5988 48.3 42.4988 49C42.4988 50.2 42.1988 51.7999 41.9988 52.0999C41.2988 52.1999 39.9988 52.3999 39.8988 52.8999C39.7988 53.1999 40.0988 53.3999 40.2988 53.5999C40.6988 53.8999 41.3988 54.2999 41.2988 55.0999C40.9988 57.6999 34.6988 68.5999 34.6988 68.5999ZM41.4988 40.2C41.4988 40.4 41.5988 40.6 41.5988 40.7C41.4988 40.7 41.4988 40.7 41.3988 40.7C41.1988 40.7 41.0988 40.7 40.8988 40.6V40.2999H40.4988C40.4988 40.4999 40.4988 40.8 40.4988 41C40.4988 41.2 40.5988 41.5 40.6988 41.7C40.7988 41.9 40.8988 42.0999 40.9988 42.3999C41.0988 42.4999 41.1988 42.6 41.1988 42.7L41.0988 42.7999C40.9988 42.8999 40.8988 43 40.7988 43.2C40.5988 43.4 40.2988 43.5999 40.0988 43.7999L39.8988 43.8999L39.9988 44.1C40.0988 44.3 40.1988 44.5 40.2988 44.7C40.3988 44.9 40.4988 45 40.6988 45.2C40.7988 45.3 40.9988 45.5 41.0988 45.6C41.0988 45.6 41.0988 45.6 41.1988 45.6C40.9988 45.7 40.7988 45.7999 40.5988 45.8999C40.1988 45.9999 39.8988 46 39.4988 46.1C39.0988 46.1 38.6988 46.1 38.2988 46C37.9988 45.9 37.6988 45.8999 37.3988 45.7999C37.3988 45.6999 37.4988 45.6 37.4988 45.5C37.2988 45.4 36.9988 45.4999 36.8988 45.7999C36.7988 45.9999 36.6988 46.1 36.6988 46.3C36.5988 46.5 36.4988 46.6999 36.3988 46.8999C36.3988 46.8999 36.2988 46.9 36.2988 46.8C36.1988 46.7 35.9988 46.6999 35.8988 46.5999C35.5988 46.4999 35.2988 46.5 34.9988 46.5C34.3988 46.5 33.8988 46.4999 33.2988 46.5999C32.6988 46.6999 32.1988 46.8999 31.6988 47.0999C31.2988 47.2999 30.8988 47.3999 30.4988 47.5999C30.3988 47.2999 30.3988 47 30.2988 46.7C30.1988 46.5 30.1988 46.3 30.0988 46C30.0988 45.9 29.9988 45.8 29.9988 45.7C29.8988 45.5 29.6988 45.5 29.4988 45.6C29.5988 45.8 29.6988 45.9 29.6988 46.1C29.3988 46.2 29.0988 46.3 28.7988 46.5C28.5988 46.6 28.3988 46.7 28.2988 46.8C28.1988 46.9 28.0988 46.9 27.9988 47C27.3988 46.3 26.5988 45.8 25.7988 45.5C25.2988 45.3 24.7988 45.2 24.2988 45.2C23.9988 45.2 23.7988 45.2 23.4988 45.2C23.3988 45.2 23.2988 45.2 23.0988 45.2H22.7988C21.8988 45.3 20.9988 45.2 20.0988 45C19.2988 44.8 18.5988 44.6 17.8988 44.2L18.5988 43.6C18.7988 43.4 18.8988 43.1999 18.9988 42.8999C19.0988 42.6999 19.1988 42.4 19.1988 42.1L18.5988 42C18.5988 42.1 18.4988 42.2999 18.4988 42.3999C18.2988 42.3999 18.1988 42.4999 17.9988 42.3999C17.8988 42.3999 17.7988 42.2999 17.6988 42.2999C17.6988 42.2999 17.5988 42.3 17.5988 42.2C17.6988 41.6 17.7988 40.9999 17.8988 40.2999C17.8988 40.0999 17.8988 39.8999 17.9988 39.7999V39.2999V38.2999H17.5988V38.7999L17.0988 39C17.1988 37.6 17.2988 36.1999 17.4988 34.7999C17.6988 33.2999 17.8988 31.6999 18.2988 30.2999V30.1C18.2988 30 18.2988 29.9999 18.2988 29.8999C18.3988 29.5999 18.4988 29.1999 18.6988 28.8999L18.2988 28.7C18.0988 29 17.9988 29.3 17.8988 29.7L17.7988 29.6C17.6988 29.5 17.4988 29.5 17.2988 29.5C17.1988 29.5 17.0988 29.5 16.8988 29.5C16.9988 28.8 17.1988 28.0999 17.2988 27.2999C17.4988 26.3999 17.6988 25.6 17.9988 24.7C18.1988 23.9 18.5988 23 18.8988 22.2C19.0988 21.8 19.2988 21.4 19.4988 21C19.6988 20.7 19.7988 20.4 19.8988 20.1C20.1988 20 20.4988 19.9 20.7988 19.7L20.6988 19.5L20.5988 19.2999C20.3988 19.3999 20.0988 19.5 19.7988 19.6H19.6988H19.5988C19.4988 19.6 19.3988 19.6 19.2988 19.6C19.6988 19.2 20.0988 18.7 20.4988 18.2C20.9988 17.6 21.3988 16.9 21.7988 16.2C22.1988 15.5 22.4988 14.8 22.7988 14C22.9988 13.4 23.1988 12.8 23.3988 12.1C23.4988 12.1 23.4988 12.2 23.5988 12.2C23.7988 12.3 23.8988 12.5 23.9988 12.7L24.1988 12.6L24.3988 12.5C24.2988 12.3 24.2988 12.2 24.1988 12C24.2988 11.7 24.2988 11.4 24.3988 11.1C24.4988 10.8 24.5988 10.5 24.6988 10.2C24.7988 9.89995 24.8988 9.59993 24.9988 9.29993C25.0988 9.09993 25.0988 8.99993 25.1988 8.79993C26.0988 9.69993 27.0988 10.5999 28.1988 11.2999C28.6988 11.5999 29.1988 11.8999 29.6988 12.2999V12.3999C29.6988 12.5999 29.7988 12.8 29.7988 13.1C29.8988 13.3 29.9988 13.5 30.0988 13.7L30.1988 13.6L30.2988 13.5C30.1988 13.3 30.0988 13.2 30.0988 13C30.0988 12.9 29.9988 12.7 29.9988 12.6C29.9988 12.5 29.9988 12.4999 29.9988 12.3999C29.9988 12.1999 29.9988 11.9999 29.9988 11.8999V11.7999C30.0988 11.9999 30.2988 12.1 30.3988 12.2C30.4988 12.3 30.6988 12.5 30.8988 12.6C31.2988 13 31.7988 13.3 32.1988 13.7C32.5988 14 33.0988 14.4 33.5988 14.7C33.6988 14.8 33.8988 14.9 33.9988 15L33.7988 14.8999C34.2988 15.1999 34.8988 15.6 35.3988 16C36.4988 16.8 37.4988 17.6 38.2988 18.6C38.0988 18.8 37.8988 19.0999 37.8988 19.2999C37.7988 19.6999 37.7988 20.0999 37.8988 20.3999C38.0988 21.0999 38.2988 21.6999 38.5988 22.2999C38.8988 22.8999 39.1988 23.5 39.4988 24.1C39.7988 24.7 40.0988 25.2999 40.2988 25.7999C40.2988 25.8999 40.3988 26.1 40.3988 26.2L40.4988 26.7C40.4988 27 40.5988 27.4 40.6988 27.7C40.7988 28.4 40.9988 29 41.1988 29.7C41.5988 30.9 42.0988 32.1 42.8988 33.1C42.7988 33.2 42.6988 33.2999 42.5988 33.2999C42.4988 33.2999 42.3988 33.3999 42.2988 33.3999C42.1988 33.3999 42.0988 33.3999 41.9988 33.3999H41.3988L41.6988 33.8999C41.6988 33.9999 41.7988 34.1 41.7988 34.2C41.7988 34.3 41.8988 34.5 41.8988 34.6C41.9988 34.9 41.9988 35.0999 41.9988 35.3999C41.9988 35.5999 41.9988 35.9 41.9988 36.1C41.3988 35.7 40.7988 35.4 40.1988 35.2H40.0988C39.9988 35 39.8988 34.8 39.8988 34.6C39.8988 34.5 39.7988 34.3 39.7988 34.1C39.9988 34 40.1988 33.8999 40.2988 33.7999C40.4988 33.5999 40.5988 33.4 40.6988 33.2C40.8988 32.7 40.9988 32.2 40.8988 31.7V31.5H40.6988C40.4988 31.5 40.1988 31.4999 40.0988 31.3999C39.8988 31.2999 39.7988 31.0999 39.6988 30.8999C39.4988 30.4999 39.4988 29.8999 39.3988 29.3999C39.5988 29.0999 39.7988 28.6 39.7988 28.2C39.7988 27.2 39.0988 26.4 38.1988 26.2L39.7988 26.2999V25.7H38.6988C38.6988 25.5 38.5988 25.2 38.5988 25C38.4988 24.7 38.3988 24.3 38.1988 24.1C37.9988 23.8 37.8988 23.4999 37.6988 23.2999C37.4988 22.9999 37.3988 22.6999 37.2988 22.3999V22.2999H37.1988C36.9988 22.1999 36.7988 22.1 36.5988 22.1C36.4988 22.1 36.3988 22.1 36.2988 22.1C36.2988 22.1 36.2988 22.1 36.1988 22.1C36.2988 21.9 36.2988 21.7 36.3988 21.5L36.0988 21.3999C35.8988 21.8999 35.7988 22.4 35.6988 23C35.5988 23.5 35.4988 23.8999 35.4988 24.3999C35.3988 24.3999 35.2988 24.3 35.0988 24.2C34.8988 24.1 34.6988 23.8999 34.5988 23.7999L34.2988 23.5L34.1988 23.8999C34.0988 24.1999 34.0988 24.4999 34.1988 24.7999C34.1988 25.0999 34.1988 25.4 34.2988 25.7C34.2988 26.2 34.3988 26.6 34.4988 27.1C34.0988 27 33.7988 26.8 33.3988 26.5C32.8988 26.2 32.4988 25.9 32.0988 25.5C31.2988 24.8 30.5988 23.9 29.9988 23L29.7988 22.7L29.5988 23.1C29.4988 23.3 29.3988 23.5999 29.2988 23.7999C29.2988 23.8999 29.1988 23.9 29.1988 24C29.0988 23.9 28.8988 23.7 28.7988 23.6C28.5988 23.4 28.4988 23.0999 28.2988 22.7999C28.0988 22.4999 27.9988 22.2 27.6988 22C27.5988 21.9 27.3988 21.8 27.1988 21.7C27.0988 21.7 26.9988 21.7 26.7988 21.7C26.7988 21.6 26.7988 21.4999 26.7988 21.3999L26.4988 21.2999C26.3988 21.4999 26.3988 21.8 26.3988 22C26.3988 22.2 26.4988 22.5 26.5988 22.7C26.6988 23 26.8988 23.4 27.0988 23.7C26.6988 23.7 26.2988 23.7 25.8988 23.5C25.3988 23.3 24.9988 23.1 24.6988 22.7L24.5988 22.5L24.4988 22.6C24.0988 23 23.8988 23.6 24.0988 24.2C24.1988 24.5 24.2988 24.6999 24.4988 24.8999C24.5988 25.0999 24.7988 25.1999 24.9988 25.2999L24.7988 25.7L24.5988 26.2999C24.4988 26.6999 24.2988 27.1 24.2988 27.5C24.1988 27.9 24.1988 28.3 24.1988 28.7C24.1988 28.9 24.1988 29.0999 24.2988 29.2999C24.2988 29.3999 24.3988 29.5 24.3988 29.6H24.2988C24.1988 29.6 24.0988 29.6 23.8988 29.6C23.6988 29.6 23.3988 29.4999 23.1988 29.3999L22.7988 29.2999L22.8988 29.7L22.9988 30.2C22.9988 30.4 23.0988 30.5 23.0988 30.7C23.1988 31 23.2988 31.3 23.3988 31.6C23.4988 31.9 23.6988 32.2 23.8988 32.5C24.0988 32.7 24.1988 32.9 24.3988 33.1C24.2988 33.1 24.2988 33.2 24.1988 33.2C24.0988 33.2 24.0988 33.2999 23.9988 33.2999C23.8988 33.2999 23.7988 33.3999 23.7988 33.3999H23.5988V33.6C23.5988 33.9 23.7988 34.0999 23.8988 34.2999C23.9988 34.4999 24.0988 34.5999 24.1988 34.7999L22.9988 35.8999L22.7988 36.1L22.9988 36.2C23.2988 36.4 23.5988 36.6999 23.8988 36.7999C24.1988 36.9999 24.5988 37.0999 24.8988 37.2999C25.2988 37.3999 25.5988 37.5 25.9988 37.6C26.2988 37.7 26.5988 37.7 26.8988 37.7C26.7988 37.9 26.6988 38.1999 26.4988 38.3999C26.2988 38.6999 26.0988 38.9 25.7988 39.1L25.9988 39.2999C26.2988 39.0999 26.4988 38.8 26.6988 38.5C26.6988 38.5 26.6988 38.4999 26.6988 38.3999C26.7988 38.3999 26.8988 38.5 26.8988 38.5C26.9988 38.6 27.1988 38.6 27.2988 38.6C27.5988 38.7 27.7988 38.7999 28.0988 38.7999C28.5988 38.8999 29.0988 39 29.5988 39.1C30.5988 39.3 31.6988 39.2999 32.6988 39.2999C33.6988 39.2999 34.7988 39.2 35.7988 39C36.6988 38.8 37.5988 38.5999 38.4988 38.2999C38.4988 38.3999 38.3988 38.6 38.3988 38.7C38.2988 38.9 38.1988 39.1999 37.9988 39.2999L38.0988 39.5C38.2988 39.3 38.4988 39.0999 38.5988 38.8999C38.8988 38.7999 39.0988 38.7 39.2988 38.6C39.4988 38.5 39.7988 38.3 39.8988 38C40.0988 37.8 40.1988 37.5 40.1988 37.2C40.1988 37 40.1988 36.9 40.1988 36.7C40.2988 36.8 40.3988 36.7999 40.3988 36.8999C40.5988 36.9999 40.6988 37.0999 40.8988 37.2999C41.0988 37.4999 41.2988 37.6999 41.4988 37.8999C41.3988 38.2999 41.3988 38.6 41.3988 39C41.4988 39.5 41.4988 39.9 41.4988 40.2ZM31.2988 32.2999C31.2988 32.3999 31.3988 32.5 31.3988 32.6C31.3988 32.6 31.4988 32.7 31.4988 32.6C31.5988 32.5 31.5988 32.4999 31.5988 32.3999C31.5988 32.2999 31.5988 32.3 31.4988 32.2C31.4988 32.1 31.3988 31.8999 31.3988 31.7999C31.3988 31.6999 31.3988 31.5 31.3988 31.5L31.4988 31.3999L31.5988 31.2999C31.9988 31.0999 32.5988 31 33.0988 31C33.3988 31 33.5988 31 33.8988 31C34.1988 31 34.3988 31.1 34.5988 31.2C34.6988 31.2 34.6988 31.4999 34.5988 31.7999C34.4988 31.9999 34.4988 32.1999 34.3988 32.3999C34.3988 32.4999 34.3988 32.6 34.4988 32.7H34.5988C34.6988 32.5 34.8988 32.3 34.8988 32C34.8988 31.9 34.9988 31.7 34.9988 31.5C34.9988 31.4 34.9988 31.3 34.8988 31.2C34.8988 31.1 34.7988 31 34.6988 31C34.3988 30.9 34.0988 30.7999 33.8988 30.7999C33.5988 30.7999 33.2988 30.7999 33.0988 30.7999C32.4988 30.7999 31.9988 30.8 31.3988 31.1C31.2988 31.1 31.2988 31.2 31.1988 31.2L31.0988 31.2999L30.9988 31.3999C30.8988 31.5999 30.8988 31.6999 30.9988 31.8999C31.2988 31.9999 31.2988 32.0999 31.2988 32.2999Z" fill="#1A110C"/>
<path d="M30.2988 28.7C30.2988 27.8 29.6988 27 28.7988 26.7H30.4988V26.1L25.7988 26.2V26.7999H27.4988C26.6988 27.0999 26.0988 27.8999 26.0988 28.7999C26.0988 29.9999 26.9988 30.8999 28.1988 30.8999C29.3988 30.7999 30.2988 29.8 30.2988 28.7ZM26.3988 28.7C26.3988 27.7 27.1988 26.8999 28.1988 26.8999C29.1988 26.8999 29.9988 27.7 29.9988 28.7C29.9988 29.7 29.1988 30.5 28.1988 30.5C27.1988 30.5 26.3988 29.7 26.3988 28.7Z" fill="#1A110C"/>
<path d="M49.7988 38.2C48.9988 38.1 48.2988 38.2 48.2988 38.3C48.2988 38.5 48.9988 38.7 49.7988 38.7C50.5988 38.8 51.2988 38.7 51.2988 38.6C51.2988 38.4 50.5988 38.2 49.7988 38.2Z" fill="#1A110C"/>
<path d="M38.1992 29.2C38.4754 29.2 38.6992 28.9761 38.6992 28.7C38.6992 28.4238 38.4754 28.2 38.1992 28.2C37.9231 28.2 37.6992 28.4238 37.6992 28.7C37.6992 28.9761 37.9231 29.2 38.1992 29.2Z" fill="#1A110C"/>
<path d="M28.7988 29.1C29.0988 29.1 29.2988 28.9 29.2988 28.6C29.2988 28.3 29.0988 28.1 28.7988 28.1C28.4988 28.1 28.2988 28.3 28.2988 28.6C28.3988 28.9 28.5988 29.1 28.7988 29.1Z" fill="#1A110C"/>
<path d="M52.5988 23.6C52.5988 22.2 53.1988 21 54.1988 20.1C53.7988 19.1 53.2988 18.1999 52.7988 17.2999C49.8988 16.6999 47.6988 14.2 47.6988 11.1C47.6988 10.8 47.6988 10.5999 47.6988 10.2999C42.7988 5.19993 36.5988 2.19995 29.8988 2.19995C14.3988 2.19995 1.79883 18.3 1.79883 38.2C1.79883 58.1 14.3988 74.2 29.8988 74.2C45.3988 74.2 57.9988 58.1 57.9988 38.2C57.9988 34.7 57.5988 31.4 56.8988 28.2C55.7988 28.1 54.6988 27.6999 53.8988 26.8999C53.0988 25.9999 52.5988 24.9 52.5988 23.6ZM53.8988 36.5C53.8988 37.1 53.8988 37.6 53.8988 38.2C53.8988 38.6 53.8988 39.1 53.8988 39.5C53.8988 39.6 53.8988 39.7 53.8988 39.7C53.8988 40.1 53.8988 40.4999 53.7988 40.8999C53.7988 40.9999 53.7988 41.1 53.7988 41.1C53.7988 41.5 53.6988 41.8999 53.6988 42.3999C53.6988 42.7999 53.5988 43.2 53.5988 43.7C53.5988 43.8 53.5988 43.7999 53.5988 43.8999C53.4988 44.2999 53.4988 44.7 53.3988 45.1C53.3988 45.2 53.3988 45.1999 53.3988 45.2999C53.2988 45.6999 53.2988 46.1 53.1988 46.5C53.0988 46.9 52.9988 47.3 52.8988 47.7V47.8C52.7988 48.2 52.6988 48.6 52.5988 49C52.5988 49.1 52.5988 49.1 52.5988 49.2C52.3988 50 52.1988 50.7999 51.8988 51.5999V51.7C51.7988 52.1 51.5988 52.4999 51.4988 52.8999V53C51.1988 53.8 50.8988 54.6 50.5988 55.3C50.3988 55.7 50.2988 55.9999 50.0988 56.3999C50.0988 56.3999 50.0988 56.4 50.0988 56.5C49.6988 57.2 49.3988 58 48.9988 58.7C44.4988 66.6 37.5988 71.5999 29.6988 71.5999C20.8988 71.5999 13.2988 65.2 8.99883 55.7C8.69883 55.1 8.39883 54.4 8.19883 53.8C7.79883 52.8 7.49883 51.8 7.19883 50.8C7.19883 50.8 7.19883 50.8 7.19883 50.7C6.99883 50 6.79883 49.2999 6.69883 48.5999V48.5C6.59883 48.2 6.49883 47.8 6.49883 47.5C6.49883 47.5 6.49883 47.4999 6.49883 47.3999C6.39883 46.9999 6.39883 46.7 6.29883 46.3V46.2C6.19883 45.9 6.19883 45.5999 6.09883 45.2999C6.09883 45.1999 6.09883 45.2 6.09883 45.1C5.99883 44.4 5.89883 43.7 5.79883 43C5.79883 42.9 5.79883 42.8 5.79883 42.7C5.79883 42.4 5.69883 42.0999 5.69883 41.7999C5.69883 41.6999 5.69883 41.7 5.69883 41.6C5.69883 41.2 5.69883 40.9 5.59883 40.5C5.59883 40.4 5.59883 40.2999 5.59883 40.2999C5.59883 39.9999 5.59883 39.6999 5.59883 39.3999C5.59883 39.2999 5.59883 39.2 5.59883 39.1C5.59883 38.7 5.59883 38.4 5.59883 38C5.59883 33.1 6.39883 28.4 7.79883 24.2C7.99883 23.5 8.29883 22.7 8.59883 22C8.69883 21.8 8.79883 21.4999 8.89883 21.2999C9.09883 20.7999 9.29883 20.3999 9.49883 19.8999C10.6988 17.3999 12.0988 15.1 13.5988 13.2C13.9988 12.7 14.4988 12.1 14.8988 11.6C15.1988 11.3 15.4988 10.9 15.7988 10.6C16.3988 9.99998 17.0988 9.3999 17.7988 8.8999C17.9988 8.7999 18.0988 8.6 18.2988 8.5C18.9988 8 19.6988 7.49998 20.3988 7.09998C23.2988 5.39998 26.4988 4.5 29.8988 4.5C30.1988 4.5 30.4988 4.5 30.7988 4.5C30.8988 4.5 30.8988 4.5 30.9988 4.5C31.2988 4.5 31.5988 4.49998 31.8988 4.59998C31.9988 4.59998 31.9988 4.59998 32.0988 4.59998C32.3988 4.59998 32.6988 4.69995 32.9988 4.69995C33.2988 4.79995 33.5988 4.7999 33.8988 4.8999C33.9988 4.8999 33.9988 4.8999 34.0988 4.8999C34.3988 4.9999 34.6988 4.99998 34.9988 5.09998C35.0988 5.09998 35.0988 5.09998 35.1988 5.09998C35.4988 5.19998 35.7988 5.2999 36.0988 5.3999C36.3988 5.4999 36.6988 5.59995 36.9988 5.69995C36.9988 5.69995 37.0988 5.69993 37.0988 5.79993C37.3988 5.89993 37.6988 5.99995 37.8988 6.19995C37.8988 6.19995 37.9988 6.19993 37.9988 6.29993C38.5988 6.59993 39.0988 6.89995 39.6988 7.19995C39.6988 7.19995 39.7988 7.19993 39.7988 7.29993C40.0988 7.49993 40.2988 7.59993 40.5988 7.79993L40.6988 7.8999C41.1988 8.2999 41.7988 8.69998 42.2988 9.09998C42.2988 9.09998 42.3988 9.09995 42.3988 9.19995C42.6988 9.39995 42.8988 9.5999 43.1988 9.8999L43.2988 10C43.7988 10.5 44.2988 11 44.7988 11.5C44.7988 11.5 44.7988 11.5 44.8988 11.6C45.0988 11.9 45.3988 12.0999 45.5988 12.3999C45.5988 12.3999 45.5988 12.4 45.6988 12.5C46.1988 13.1 46.5988 13.6 47.0988 14.2C47.2988 14.5 47.4988 14.8 47.7988 15.1C48.0988 15.5 48.2988 15.8999 48.5988 16.2999C48.9988 16.8999 49.2988 17.5 49.6988 18.2C49.8988 18.6 50.0988 18.9999 50.2988 19.3999C50.5988 20.0999 50.9988 20.8 51.2988 21.5C51.9988 23.2 52.5988 24.9999 53.0988 26.8999C53.2988 27.5999 53.3988 28.3 53.5988 29.1C54.5988 29.8 55.1988 30.9 55.1988 32.1C55.1988 33 54.8988 33.7999 54.3988 34.3999C54.3988 34.3999 54.3988 34.5 54.2988 34.5C53.7988 35.3 53.7988 35.9 53.8988 36.5Z" fill="#213521"/>
</svg>
